%TF.GenerationSoftware,KiCad,Pcbnew,8.0.7*%
%TF.CreationDate,2025-01-02T16:49:33-06:00*%
%TF.ProjectId,z88-flash-mod,7a38382d-666c-4617-9368-2d6d6f642e6b,rev?*%
%TF.SameCoordinates,Original*%
%TF.FileFunction,Soldermask,Top*%
%TF.FilePolarity,Negative*%
%FSLAX46Y46*%
G04 Gerber Fmt 4.6, Leading zero omitted, Abs format (unit mm)*
G04 Created by KiCad (PCBNEW 8.0.7) date 2025-01-02 16:49:33*
%MOMM*%
%LPD*%
G01*
G04 APERTURE LIST*
G04 Aperture macros list*
%AMRoundRect*
0 Rectangle with rounded corners*
0 $1 Rounding radius*
0 $2 $3 $4 $5 $6 $7 $8 $9 X,Y pos of 4 corners*
0 Add a 4 corners polygon primitive as box body*
4,1,4,$2,$3,$4,$5,$6,$7,$8,$9,$2,$3,0*
0 Add four circle primitives for the rounded corners*
1,1,$1+$1,$2,$3*
1,1,$1+$1,$4,$5*
1,1,$1+$1,$6,$7*
1,1,$1+$1,$8,$9*
0 Add four rect primitives between the rounded corners*
20,1,$1+$1,$2,$3,$4,$5,0*
20,1,$1+$1,$4,$5,$6,$7,0*
20,1,$1+$1,$6,$7,$8,$9,0*
20,1,$1+$1,$8,$9,$2,$3,0*%
G04 Aperture macros list end*
%ADD10RoundRect,0.250000X0.650000X-0.325000X0.650000X0.325000X-0.650000X0.325000X-0.650000X-0.325000X0*%
%ADD11RoundRect,0.150000X-0.150000X0.875000X-0.150000X-0.875000X0.150000X-0.875000X0.150000X0.875000X0*%
%ADD12RoundRect,0.150000X-0.150000X0.725000X-0.150000X-0.725000X0.150000X-0.725000X0.150000X0.725000X0*%
%ADD13RoundRect,0.250000X-0.375000X-0.625000X0.375000X-0.625000X0.375000X0.625000X-0.375000X0.625000X0*%
%ADD14RoundRect,0.075000X0.075000X-0.712500X0.075000X0.712500X-0.075000X0.712500X-0.075000X-0.712500X0*%
%ADD15R,1.500000X1.000000*%
%ADD16RoundRect,0.250000X-0.350000X-0.450000X0.350000X-0.450000X0.350000X0.450000X-0.350000X0.450000X0*%
%ADD17R,0.750000X5.000000*%
%ADD18R,0.750000X2.000000*%
%ADD19R,0.750000X3.000000*%
%ADD20R,0.750000X4.000000*%
%ADD21R,0.750000X7.500000*%
G04 APERTURE END LIST*
D10*
%TO.C,C2*%
X141351000Y-103202000D03*
X141351000Y-100252000D03*
%TD*%
%TO.C,C3*%
X141351000Y-87024000D03*
X141351000Y-84074000D03*
%TD*%
D11*
%TO.C,U2*%
X163576000Y-95250000D03*
X162306000Y-95250000D03*
X161036000Y-95250000D03*
X159766000Y-95250000D03*
X158496000Y-95250000D03*
X157226000Y-95250000D03*
X155956000Y-95250000D03*
X154686000Y-95250000D03*
X153416000Y-95250000D03*
X152146000Y-95250000D03*
X150876000Y-95250000D03*
X149606000Y-95250000D03*
X148336000Y-95250000D03*
X147066000Y-95250000D03*
X145796000Y-95250000D03*
X144526000Y-95250000D03*
X144526000Y-108350000D03*
X145796000Y-108350000D03*
X147066000Y-108350000D03*
X148336000Y-108350000D03*
X149606000Y-108350000D03*
X150876000Y-108350000D03*
X152146000Y-108350000D03*
X153416000Y-108350000D03*
X154686000Y-108350000D03*
X155956000Y-108350000D03*
X157226000Y-108350000D03*
X158496000Y-108350000D03*
X159766000Y-108350000D03*
X161036000Y-108350000D03*
X162306000Y-108350000D03*
X163576000Y-108350000D03*
%TD*%
D12*
%TO.C,U4*%
X132080000Y-105537000D03*
X130810000Y-105537000D03*
X129540000Y-105537000D03*
X128270000Y-105537000D03*
X127000000Y-105537000D03*
X125730000Y-105537000D03*
X124460000Y-105537000D03*
X123190000Y-105537000D03*
X123190000Y-110687000D03*
X124460000Y-110687000D03*
X125730000Y-110687000D03*
X127000000Y-110687000D03*
X128270000Y-110687000D03*
X129540000Y-110687000D03*
X130810000Y-110687000D03*
X132080000Y-110687000D03*
%TD*%
D13*
%TO.C,D1*%
X139570000Y-112903000D03*
X142370000Y-112903000D03*
%TD*%
D14*
%TO.C,U1*%
X119719000Y-98636500D03*
X120219000Y-98636500D03*
X120719000Y-98636500D03*
X121219000Y-98636500D03*
X121719000Y-98636500D03*
X122219000Y-98636500D03*
X122719000Y-98636500D03*
X123219000Y-98636500D03*
X123719000Y-98636500D03*
X124219000Y-98636500D03*
X124719000Y-98636500D03*
X125219000Y-98636500D03*
X125719000Y-98636500D03*
X126219000Y-98636500D03*
X126719000Y-98636500D03*
X127219000Y-98636500D03*
X127719000Y-98636500D03*
X128219000Y-98636500D03*
X128719000Y-98636500D03*
X129219000Y-98636500D03*
X129719000Y-98636500D03*
X130219000Y-98636500D03*
X130719000Y-98636500D03*
X131219000Y-98636500D03*
X131219000Y-79261500D03*
X130719000Y-79261500D03*
X130219000Y-79261500D03*
X129719000Y-79261500D03*
X129219000Y-79261500D03*
X128719000Y-79261500D03*
X128219000Y-79261500D03*
X127719000Y-79261500D03*
X127219000Y-79261500D03*
X126719000Y-79261500D03*
X126219000Y-79261500D03*
X125719000Y-79261500D03*
X125219000Y-79261500D03*
X124719000Y-79261500D03*
X124219000Y-79261500D03*
X123719000Y-79261500D03*
X123219000Y-79261500D03*
X122719000Y-79261500D03*
X122219000Y-79261500D03*
X121719000Y-79261500D03*
X121219000Y-79261500D03*
X120719000Y-79261500D03*
X120219000Y-79261500D03*
X119719000Y-79261500D03*
%TD*%
D15*
%TO.C,512K*%
X135509000Y-108585000D03*
X135509000Y-107285000D03*
%TD*%
D16*
%TO.C,R1*%
X139954000Y-109982000D03*
X141954000Y-109982000D03*
%TD*%
D10*
%TO.C,C1*%
X134620000Y-90375000D03*
X134620000Y-87425000D03*
%TD*%
D17*
%TO.C,J1*%
X164094000Y-68199000D03*
D18*
X164114000Y-64199000D03*
D17*
X162844000Y-68199000D03*
D18*
X162844000Y-64199000D03*
D17*
X161594000Y-68199000D03*
D18*
X161594000Y-64199000D03*
D17*
X160344000Y-68199000D03*
D18*
X160344000Y-64199000D03*
D17*
X159094000Y-68199000D03*
D18*
X159094000Y-64199000D03*
D17*
X157844000Y-68199000D03*
D18*
X157844000Y-64199000D03*
D17*
X156594000Y-68199000D03*
D18*
X156594000Y-64199000D03*
D17*
X155344000Y-68199000D03*
D18*
X155344000Y-64199000D03*
D17*
X154094000Y-68199000D03*
D18*
X154094000Y-64199000D03*
D17*
X152844000Y-68199000D03*
D18*
X152844000Y-64199000D03*
D17*
X151594000Y-68199000D03*
D18*
X151594000Y-64199000D03*
D19*
X150344000Y-69199000D03*
D20*
X150344000Y-65199000D03*
D19*
X149094000Y-69199000D03*
D20*
X149094000Y-65199000D03*
D19*
X147844000Y-69199000D03*
D20*
X147844000Y-65199000D03*
D18*
X146594000Y-69699000D03*
D17*
X146594000Y-65699000D03*
D21*
X145344000Y-66949000D03*
X144094000Y-66949000D03*
D17*
X142844000Y-68199000D03*
D18*
X142844000Y-64199000D03*
D20*
X141594000Y-68699000D03*
D19*
X141594000Y-64699000D03*
D20*
X140344000Y-68699000D03*
D19*
X140344000Y-64699000D03*
D20*
X139094000Y-68699000D03*
D19*
X139094000Y-64699000D03*
D17*
X137844000Y-68199000D03*
D18*
X137844000Y-64199000D03*
D17*
X136594000Y-68199000D03*
D18*
X136594000Y-64199000D03*
D17*
X135344000Y-68199000D03*
D18*
X135344000Y-64199000D03*
D17*
X134094000Y-68199000D03*
D18*
X134094000Y-64199000D03*
D17*
X132844000Y-68199000D03*
D18*
X132844000Y-64199000D03*
D17*
X131594000Y-68199000D03*
D18*
X131594000Y-64199000D03*
D17*
X130344000Y-68199000D03*
D18*
X130344000Y-64199000D03*
D17*
X129094000Y-68199000D03*
D18*
X129094000Y-64199000D03*
D17*
X127844000Y-68199000D03*
D18*
X127844000Y-64199000D03*
D19*
X126594000Y-69199000D03*
D20*
X126594000Y-65199000D03*
D19*
X125344000Y-69199000D03*
D20*
X125344000Y-65199000D03*
D19*
X124094000Y-69199000D03*
D20*
X124094000Y-65199000D03*
D19*
X122844000Y-69199000D03*
D20*
X122844000Y-65199000D03*
D19*
X121594000Y-69199000D03*
D20*
X121594000Y-65199000D03*
D17*
X120344000Y-68144000D03*
D18*
X120344000Y-64199000D03*
D17*
X119094000Y-68144000D03*
D18*
X119094000Y-64199000D03*
D17*
X117844000Y-68144000D03*
D18*
X117844000Y-64199000D03*
%TD*%
D11*
%TO.C,U3*%
X163576000Y-78994000D03*
X162306000Y-78994000D03*
X161036000Y-78994000D03*
X159766000Y-78994000D03*
X158496000Y-78994000D03*
X157226000Y-78994000D03*
X155956000Y-78994000D03*
X154686000Y-78994000D03*
X153416000Y-78994000D03*
X152146000Y-78994000D03*
X150876000Y-78994000D03*
X149606000Y-78994000D03*
X148336000Y-78994000D03*
X147066000Y-78994000D03*
X145796000Y-78994000D03*
X144526000Y-78994000D03*
X144526000Y-92094000D03*
X145796000Y-92094000D03*
X147066000Y-92094000D03*
X148336000Y-92094000D03*
X149606000Y-92094000D03*
X150876000Y-92094000D03*
X152146000Y-92094000D03*
X153416000Y-92094000D03*
X154686000Y-92094000D03*
X155956000Y-92094000D03*
X157226000Y-92094000D03*
X158496000Y-92094000D03*
X159766000Y-92094000D03*
X161036000Y-92094000D03*
X162306000Y-92094000D03*
X163576000Y-92094000D03*
%TD*%
M02*
