%TF.GenerationSoftware,KiCad,Pcbnew,8.0.7*%
%TF.CreationDate,2025-01-02T16:49:33-06:00*%
%TF.ProjectId,z88-flash-mod,7a38382d-666c-4617-9368-2d6d6f642e6b,rev?*%
%TF.SameCoordinates,Original*%
%TF.FileFunction,Copper,L2,Inr*%
%TF.FilePolarity,Positive*%
%FSLAX46Y46*%
G04 Gerber Fmt 4.6, Leading zero omitted, Abs format (unit mm)*
G04 Created by KiCad (PCBNEW 8.0.7) date 2025-01-02 16:49:33*
%MOMM*%
%LPD*%
G01*
G04 APERTURE LIST*
%TA.AperFunction,ViaPad*%
%ADD10C,0.800000*%
%TD*%
%TA.AperFunction,Conductor*%
%ADD11C,0.250000*%
%TD*%
G04 APERTURE END LIST*
D10*
%TO.N,GND*%
X123190000Y-106934000D03*
X141351000Y-98298000D03*
X133477000Y-83502000D03*
X120469000Y-77824000D03*
X129540000Y-112141000D03*
X130175000Y-106971000D03*
X144094000Y-71699000D03*
%TO.N,/D2*%
X145669000Y-80899000D03*
X127219000Y-80949000D03*
X145796000Y-97409000D03*
%TO.N,/D1*%
X147066000Y-98298000D03*
X128219000Y-80949000D03*
X147066000Y-80899000D03*
%TO.N,/A14*%
X161036000Y-80899000D03*
X161036000Y-99822000D03*
X142875000Y-73025000D03*
X120719000Y-96449000D03*
%TO.N,/D0*%
X148344000Y-80899000D03*
X129219000Y-80949000D03*
X148336000Y-97409000D03*
%TO.N,/A13*%
X158496000Y-89916000D03*
X158496000Y-106426000D03*
X136594000Y-73025000D03*
X120969000Y-101699000D03*
%TO.N,/A0*%
X149606000Y-80899000D03*
X149606000Y-98298000D03*
X122555000Y-77470000D03*
%TO.N,/A8*%
X157226000Y-89027000D03*
X135344000Y-73025000D03*
X157226000Y-99748000D03*
X157226000Y-105410000D03*
X127719003Y-96449000D03*
%TO.N,/A1*%
X150876000Y-80899000D03*
X131719000Y-77824000D03*
X150876000Y-97409000D03*
%TO.N,/A9*%
X123969000Y-101699000D03*
X155956000Y-89916000D03*
X155956000Y-106426000D03*
X134094000Y-73025000D03*
%TO.N,/A2*%
X152146000Y-98298000D03*
X152146000Y-81824000D03*
X132219000Y-96449000D03*
%TO.N,/A11*%
X132844000Y-73025000D03*
X122469000Y-101699000D03*
X154686000Y-89027000D03*
X154686000Y-106426000D03*
%TO.N,/A3*%
X153416000Y-80899000D03*
X153416000Y-97409000D03*
X131469000Y-95449000D03*
%TO.N,/A4*%
X130719000Y-96449000D03*
X154686000Y-98298000D03*
X154686000Y-81824000D03*
%TO.N,/A10*%
X152146000Y-106426000D03*
X152146000Y-89027000D03*
X122719000Y-96424000D03*
X129094000Y-73025000D03*
%TO.N,/A5*%
X155956000Y-80899000D03*
X129969000Y-95449000D03*
X155956000Y-97409000D03*
%TO.N,/A6*%
X157226000Y-98298000D03*
X157226000Y-81788000D03*
X129219000Y-96449000D03*
%TO.N,/D7*%
X126594000Y-73025000D03*
X149606000Y-106426000D03*
X121719000Y-80949000D03*
X149606000Y-89027000D03*
%TO.N,/A7*%
X128469000Y-95449000D03*
X158496000Y-80899000D03*
X158496000Y-97409000D03*
%TO.N,/D6*%
X148336000Y-89916000D03*
X122719000Y-80949000D03*
X125344000Y-73025000D03*
X148336000Y-106426000D03*
%TO.N,/A12*%
X159126000Y-105410000D03*
X159766000Y-98298000D03*
X159766000Y-80899000D03*
X121719000Y-100699000D03*
%TO.N,/D5*%
X147066000Y-106426000D03*
X123744305Y-81974305D03*
X147066000Y-89027000D03*
%TO.N,/A15*%
X120219000Y-100699000D03*
X162306000Y-89027000D03*
X162814000Y-73025000D03*
X162306000Y-106426000D03*
%TO.N,/D4*%
X145796000Y-106426000D03*
X124744305Y-80974305D03*
X145796000Y-89916000D03*
%TO.N,/A16*%
X119469000Y-101699000D03*
X162306000Y-80899000D03*
X162523000Y-99785000D03*
%TO.N,/D3*%
X144526000Y-89027000D03*
X126219000Y-80949000D03*
X144526000Y-106426000D03*
%TO.N,/WEL*%
X159766000Y-106426000D03*
X125222000Y-100711000D03*
X159766000Y-89027000D03*
X137844000Y-73025000D03*
%TO.N,/ROE*%
X130094000Y-81949000D03*
X153416000Y-89916000D03*
X153416000Y-106426000D03*
%TO.N,/A17*%
X161036000Y-89916000D03*
X119719000Y-80949000D03*
X161036000Y-106426000D03*
%TO.N,/A19*%
X118545892Y-88591108D03*
X126219000Y-96449000D03*
%TO.N,/A18*%
X163576000Y-81788000D03*
X126969006Y-95449000D03*
X163576000Y-97409000D03*
X119253000Y-87884000D03*
%TO.N,/~{SE1}*%
X130719000Y-76926000D03*
X128719000Y-76949000D03*
X133604000Y-104424000D03*
%TO.N,Net-(JP1-A)*%
X136594000Y-105881000D03*
X150876000Y-106426000D03*
%TO.N,Net-(U3-CE#)*%
X127344000Y-103699000D03*
X151511000Y-104394000D03*
X150876000Y-89916000D03*
%TD*%
D11*
%TO.N,/D2*%
X127219000Y-80824000D02*
X128356000Y-79687000D01*
X145394000Y-81174000D02*
X145669000Y-80899000D01*
X127219000Y-80949000D02*
X127219000Y-80824000D01*
X139848000Y-81174000D02*
X145394000Y-81174000D01*
X138361000Y-79687000D02*
X139848000Y-81174000D01*
X128356000Y-79687000D02*
X138361000Y-79687000D01*
%TO.N,/D1*%
X139661604Y-81624000D02*
X146341000Y-81624000D01*
X138174604Y-80137000D02*
X139661604Y-81624000D01*
X146341000Y-81624000D02*
X147066000Y-80899000D01*
X128219000Y-80923695D02*
X129005695Y-80137000D01*
X128219000Y-80949000D02*
X128219000Y-80923695D01*
X129005695Y-80137000D02*
X138174604Y-80137000D01*
%TO.N,/A14*%
X120719000Y-96449000D02*
X121469000Y-95699000D01*
X159131000Y-101727000D02*
X161036000Y-99822000D01*
X154765980Y-101273000D02*
X157362701Y-101273000D01*
X124344000Y-95699000D02*
X131377000Y-102732000D01*
X157816701Y-101727000D02*
X159131000Y-101727000D01*
X121469000Y-95699000D02*
X124344000Y-95699000D01*
X153306980Y-102732000D02*
X154765980Y-101273000D01*
X157362701Y-101273000D02*
X157816701Y-101727000D01*
X131377000Y-102732000D02*
X153306980Y-102732000D01*
%TO.N,/D0*%
X129523000Y-80645000D02*
X129219000Y-80949000D01*
X147169000Y-82074000D02*
X139475208Y-82074000D01*
X148344000Y-80899000D02*
X147169000Y-82074000D01*
X139475208Y-82074000D02*
X138046208Y-80645000D01*
X138046208Y-80645000D02*
X129523000Y-80645000D01*
%TO.N,/A13*%
X136594000Y-74074000D02*
X140419000Y-77899000D01*
X120969000Y-102199000D02*
X127816000Y-109046000D01*
X152448000Y-77899000D02*
X155067000Y-80518000D01*
X155411000Y-81523695D02*
X155411000Y-84286812D01*
X155067000Y-80518000D02*
X155067000Y-81179695D01*
X120969000Y-101699000D02*
X120969000Y-102199000D01*
X136594000Y-73025000D02*
X136594000Y-74074000D01*
X156871000Y-108051000D02*
X158496000Y-106426000D01*
X155067000Y-81179695D02*
X155411000Y-81523695D01*
X155411000Y-84286812D02*
X158496000Y-87371812D01*
X127816000Y-109046000D02*
X151435188Y-109046000D01*
X158496000Y-87371812D02*
X158496000Y-89916000D01*
X152430188Y-108051000D02*
X156871000Y-108051000D01*
X151435188Y-109046000D02*
X152430188Y-108051000D01*
X140419000Y-77899000D02*
X152448000Y-77899000D01*
%TO.N,/A0*%
X148881000Y-80174000D02*
X149606000Y-80899000D01*
X138537020Y-79199000D02*
X139512020Y-80174000D01*
X122555000Y-77470000D02*
X122990000Y-77470000D01*
X139512020Y-80174000D02*
X148881000Y-80174000D01*
X122990000Y-77470000D02*
X124719000Y-79199000D01*
X124719000Y-79199000D02*
X138537020Y-79199000D01*
%TO.N,/A8*%
X152934188Y-101832000D02*
X154393188Y-100373000D01*
X132058000Y-101832000D02*
X152934188Y-101832000D01*
X154178000Y-81166348D02*
X153797000Y-81547348D01*
X127719003Y-96449000D02*
X127719003Y-97493003D01*
X152009000Y-78349000D02*
X154178000Y-80518000D01*
X153797000Y-83309208D02*
X157226000Y-86738208D01*
X156601000Y-100373000D02*
X157226000Y-99748000D01*
X154178000Y-80518000D02*
X154178000Y-81166348D01*
X127719003Y-97493003D02*
X132058000Y-101832000D01*
X140232604Y-78349000D02*
X152009000Y-78349000D01*
X157226000Y-86738208D02*
X157226000Y-89027000D01*
X135344000Y-73025000D02*
X135344000Y-73460396D01*
X154393188Y-100373000D02*
X156601000Y-100373000D01*
X153797000Y-81547348D02*
X153797000Y-83309208D01*
X135344000Y-73460396D02*
X140232604Y-78349000D01*
%TO.N,/A1*%
X131719000Y-77824000D02*
X137798416Y-77824000D01*
X149676000Y-79699000D02*
X150876000Y-80899000D01*
X139673416Y-79699000D02*
X149676000Y-79699000D01*
X137798416Y-77824000D02*
X139673416Y-79699000D01*
%TO.N,/A9*%
X126937396Y-105156000D02*
X154686000Y-105156000D01*
X123969000Y-101699000D02*
X123969000Y-102187604D01*
X134272208Y-73025000D02*
X140046208Y-78799000D01*
X153035000Y-83183604D02*
X155956000Y-86104604D01*
X134094000Y-73025000D02*
X134272208Y-73025000D01*
X150935000Y-78799000D02*
X152654000Y-80518000D01*
X123969000Y-102187604D02*
X126937396Y-105156000D01*
X155956000Y-86104604D02*
X155956000Y-89916000D01*
X152654000Y-81162305D02*
X153035000Y-81543305D01*
X140046208Y-78799000D02*
X150935000Y-78799000D01*
X154686000Y-105156000D02*
X155956000Y-106426000D01*
X153035000Y-81543305D02*
X153035000Y-83183604D01*
X152654000Y-80518000D02*
X152654000Y-81162305D01*
%TO.N,/A2*%
X132219000Y-97449000D02*
X133902000Y-99132000D01*
X132219000Y-96699000D02*
X132219000Y-97449000D01*
X151312000Y-99132000D02*
X152146000Y-98298000D01*
X133902000Y-99132000D02*
X151312000Y-99132000D01*
%TO.N,/A11*%
X134360812Y-73750000D02*
X139859812Y-79249000D01*
X128416000Y-108146000D02*
X122469000Y-102199000D01*
X151062396Y-108146000D02*
X128416000Y-108146000D01*
X132844000Y-73025000D02*
X133569000Y-73750000D01*
X122469000Y-102199000D02*
X122469000Y-101699000D01*
X154686000Y-106426000D02*
X153961000Y-107151000D01*
X151601000Y-81199305D02*
X151421000Y-81379305D01*
X151421000Y-82206000D02*
X154686000Y-85471000D01*
X153961000Y-107151000D02*
X152057396Y-107151000D01*
X139859812Y-79249000D02*
X150332000Y-79249000D01*
X150332000Y-79249000D02*
X151601000Y-80518000D01*
X151601000Y-80518000D02*
X151601000Y-81199305D01*
X151421000Y-81379305D02*
X151421000Y-82206000D01*
X154686000Y-85471000D02*
X154686000Y-89027000D01*
X152057396Y-107151000D02*
X151062396Y-108146000D01*
X133569000Y-73750000D02*
X134360812Y-73750000D01*
%TO.N,/A3*%
X131469000Y-95699000D02*
X131469000Y-97449000D01*
X131469000Y-97449000D02*
X133602000Y-99582000D01*
X151887305Y-99582000D02*
X153416000Y-98053305D01*
X133602000Y-99582000D02*
X151887305Y-99582000D01*
X153416000Y-98053305D02*
X153416000Y-97409000D01*
%TO.N,/A4*%
X152073701Y-100032000D02*
X153807701Y-98298000D01*
X130719000Y-96699000D02*
X130719000Y-97390851D01*
X133360149Y-100032000D02*
X152073701Y-100032000D01*
X130719000Y-97390851D02*
X133360149Y-100032000D01*
X153807701Y-98298000D02*
X154686000Y-98298000D01*
%TO.N,/A10*%
X123194000Y-96899000D02*
X123194000Y-102142750D01*
X128747250Y-107696000D02*
X150876000Y-107696000D01*
X123194000Y-102142750D02*
X128747250Y-107696000D01*
X122719000Y-96424000D02*
X123194000Y-96899000D01*
X150876000Y-107696000D02*
X152146000Y-106426000D01*
%TO.N,/A5*%
X153834000Y-99023000D02*
X154986305Y-99023000D01*
X132981903Y-100482000D02*
X152375000Y-100482000D01*
X154986305Y-99023000D02*
X155956000Y-98053305D01*
X129969000Y-97469097D02*
X132981903Y-100482000D01*
X152375000Y-100482000D02*
X153834000Y-99023000D01*
X129969000Y-95699000D02*
X129969000Y-97469097D01*
X155956000Y-98053305D02*
X155956000Y-97409000D01*
%TO.N,/A6*%
X132748754Y-100932000D02*
X152561396Y-100932000D01*
X156347701Y-98298000D02*
X157226000Y-98298000D01*
X155172701Y-99473000D02*
X156347701Y-98298000D01*
X152561396Y-100932000D02*
X154020396Y-99473000D01*
X129219000Y-96699000D02*
X129219000Y-97402246D01*
X129219000Y-97402246D02*
X132748754Y-100932000D01*
X154020396Y-99473000D02*
X155172701Y-99473000D01*
%TO.N,/D7*%
X144105507Y-91541000D02*
X139041507Y-86477000D01*
X139041507Y-86477000D02*
X126585299Y-86477000D01*
X121719000Y-81610701D02*
X121719000Y-80949000D01*
X149606000Y-89812000D02*
X147877000Y-91541000D01*
X149606000Y-89027000D02*
X149606000Y-89812000D01*
X147877000Y-91541000D02*
X144105507Y-91541000D01*
X126585299Y-86477000D02*
X121719000Y-81610701D01*
%TO.N,/A7*%
X152747792Y-101382000D02*
X154206792Y-99923000D01*
X158496000Y-98053305D02*
X158496000Y-97409000D01*
X155359097Y-99923000D02*
X156259097Y-99023000D01*
X156259097Y-99023000D02*
X157526305Y-99023000D01*
X154206792Y-99923000D02*
X155359097Y-99923000D01*
X157526305Y-99023000D02*
X158496000Y-98053305D01*
X128469000Y-97481000D02*
X132370000Y-101382000D01*
X128469000Y-95449000D02*
X128469000Y-97481000D01*
X132370000Y-101382000D02*
X152747792Y-101382000D01*
%TO.N,/D6*%
X147161000Y-91091000D02*
X144291903Y-91091000D01*
X126771695Y-86027000D02*
X122719000Y-81974305D01*
X122719000Y-81974305D02*
X122719000Y-80949000D01*
X144291903Y-91091000D02*
X139227903Y-86027000D01*
X148336000Y-89916000D02*
X147161000Y-91091000D01*
X139227903Y-86027000D02*
X126771695Y-86027000D01*
%TO.N,/A12*%
X152243792Y-107601000D02*
X151248792Y-108596000D01*
X156295695Y-107601000D02*
X152243792Y-107601000D01*
X158486695Y-105410000D02*
X156295695Y-107601000D01*
X121719000Y-102149152D02*
X121719000Y-100699000D01*
X151248792Y-108596000D02*
X128165848Y-108596000D01*
X128165848Y-108596000D02*
X121719000Y-102149152D01*
X159126000Y-105410000D02*
X158486695Y-105410000D01*
%TO.N,/D5*%
X146096305Y-90641000D02*
X147066000Y-89671305D01*
X139414299Y-85577000D02*
X144478299Y-90641000D01*
X127347000Y-85577000D02*
X139414299Y-85577000D01*
X123744305Y-81974305D02*
X127347000Y-85577000D01*
X144478299Y-90641000D02*
X146096305Y-90641000D01*
X147066000Y-89671305D02*
X147066000Y-89027000D01*
%TO.N,/A15*%
X120219000Y-102199000D02*
X127516000Y-109496000D01*
X127516000Y-109496000D02*
X151621584Y-109496000D01*
X158407396Y-107151000D02*
X161581000Y-107151000D01*
X157057396Y-108501000D02*
X158407396Y-107151000D01*
X151621584Y-109496000D02*
X152616584Y-108501000D01*
X161581000Y-107151000D02*
X162306000Y-106426000D01*
X152616584Y-108501000D02*
X157057396Y-108501000D01*
X120219000Y-100699000D02*
X120219000Y-102199000D01*
%TO.N,/D4*%
X144389695Y-89916000D02*
X139600695Y-85127000D01*
X139600695Y-85127000D02*
X128897000Y-85127000D01*
X128897000Y-85127000D02*
X124744305Y-80974305D01*
X145796000Y-89916000D02*
X144389695Y-89916000D01*
%TO.N,/A16*%
X163031000Y-106726305D02*
X163031000Y-100293000D01*
X119469000Y-101699000D02*
X119469000Y-102199000D01*
X152802980Y-108951000D02*
X157243792Y-108951000D01*
X119469000Y-102199000D02*
X123479000Y-106209000D01*
X123479000Y-106209000D02*
X123490305Y-106209000D01*
X163031000Y-100293000D02*
X162523000Y-99785000D01*
X162156305Y-107601000D02*
X163031000Y-106726305D01*
X123490305Y-106209000D02*
X123915000Y-106633695D01*
X123915000Y-106633695D02*
X123915000Y-106645000D01*
X151807980Y-109946000D02*
X152802980Y-108951000D01*
X158593792Y-107601000D02*
X162156305Y-107601000D01*
X123915000Y-106645000D02*
X127216000Y-109946000D01*
X157243792Y-108951000D02*
X158593792Y-107601000D01*
X127216000Y-109946000D02*
X151807980Y-109946000D01*
%TO.N,/D3*%
X129822000Y-84677000D02*
X126219000Y-81074000D01*
X144526000Y-89027000D02*
X144137091Y-89027000D01*
X126219000Y-81074000D02*
X126219000Y-80949000D01*
X144137091Y-89027000D02*
X139787091Y-84677000D01*
X139787091Y-84677000D02*
X129822000Y-84677000D01*
%TO.N,/WEL*%
X126082429Y-101571429D02*
X129466429Y-101571429D01*
X160147000Y-106045000D02*
X159766000Y-106426000D01*
X156681000Y-80598695D02*
X156681000Y-81199305D01*
X140605396Y-77449000D02*
X153531305Y-77449000D01*
X156337000Y-81543305D02*
X156337000Y-84576416D01*
X137844000Y-73025000D02*
X137844000Y-74687604D01*
X160147000Y-104521000D02*
X160147000Y-106045000D01*
X158808000Y-103182000D02*
X160147000Y-104521000D01*
X159766000Y-88005416D02*
X159766000Y-89027000D01*
X156337000Y-84576416D02*
X159766000Y-88005416D01*
X137844000Y-74687604D02*
X140605396Y-77449000D01*
X156681000Y-81199305D02*
X156337000Y-81543305D01*
X153531305Y-77449000D02*
X156681000Y-80598695D01*
X131077000Y-103182000D02*
X158808000Y-103182000D01*
X125222000Y-100711000D02*
X126082429Y-101571429D01*
X129466429Y-101571429D02*
X131077000Y-103182000D01*
%TO.N,/ROE*%
X132372000Y-84227000D02*
X139973487Y-84227000D01*
X130094000Y-81949000D02*
X132372000Y-84227000D01*
X150287305Y-88302000D02*
X151901305Y-89916000D01*
X139973487Y-84227000D02*
X144048487Y-88302000D01*
X144048487Y-88302000D02*
X150287305Y-88302000D01*
X151901305Y-89916000D02*
X153416000Y-89916000D01*
%TO.N,/A17*%
X149376396Y-90678000D02*
X148063396Y-91991000D01*
X161036000Y-89916000D02*
X160274000Y-90678000D01*
X148063396Y-91991000D02*
X143919111Y-91991000D01*
X160274000Y-90678000D02*
X149376396Y-90678000D01*
X143919111Y-91991000D02*
X138855111Y-86927000D01*
X138855111Y-86927000D02*
X125697000Y-86927000D01*
X125697000Y-86927000D02*
X119719000Y-80949000D01*
%TO.N,/A19*%
X126219000Y-96449000D02*
X126219000Y-94824000D01*
X126219000Y-94824000D02*
X120004000Y-88609000D01*
X118563784Y-88609000D02*
X118545892Y-88591108D01*
X120004000Y-88609000D02*
X118563784Y-88609000D01*
%TO.N,/A18*%
X160311000Y-99521695D02*
X162423695Y-97409000D01*
X126969006Y-97511506D02*
X131739500Y-102282000D01*
X131739500Y-102282000D02*
X153120584Y-102282000D01*
X159146000Y-100823000D02*
X160311000Y-99658000D01*
X162423695Y-97409000D02*
X163576000Y-97409000D01*
X126969006Y-95449000D02*
X126969006Y-97511506D01*
X126969006Y-95449000D02*
X126969006Y-94824006D01*
X153120584Y-102282000D02*
X154579584Y-100823000D01*
X160311000Y-99658000D02*
X160311000Y-99521695D01*
X126969006Y-94824006D02*
X120029000Y-87884000D01*
X120029000Y-87884000D02*
X119253000Y-87884000D01*
X154579584Y-100823000D02*
X159146000Y-100823000D01*
%TO.N,Net-(JP1-A)*%
X136869000Y-105606000D02*
X150056000Y-105606000D01*
X150056000Y-105606000D02*
X150876000Y-106426000D01*
X136594000Y-105881000D02*
X136869000Y-105606000D01*
%TO.N,Net-(U3-CE#)*%
X151511000Y-104394000D02*
X150816000Y-103699000D01*
X150816000Y-103699000D02*
X127344000Y-103699000D01*
%TD*%
M02*
