M48
; DRILL file {KiCad 8.0.7} date 2025-01-02T16:49:44-0600
; FORMAT={-:-/ absolute / inch / decimal}
; #@! TF.CreationDate,2025-01-02T16:49:44-06:00
; #@! TF.GenerationSoftware,Kicad,Pcbnew,8.0.7
; #@! TF.FileFunction,Plated,1,4,PTH
FMAT,2
INCH
; #@! TA.AperFunction,Plated,PTH,ViaDrill
T1C0.0157
%
G90
G05
T1
X4.6672Y-3.4878
X4.695Y-3.46
X4.7035Y-4.0039
X4.7133Y-3.187
X4.733Y-3.9645
X4.7429Y-3.0639
X4.7527Y-3.7972
X4.7626Y-4.0039
X4.7921Y-3.187
X4.7921Y-3.9645
X4.8216Y-4.0039
X4.825Y-3.05
X4.8315Y-3.187
X4.8315Y-3.7962
X4.85Y-4.21
X4.8718Y-3.2273
X4.8807Y-4.0039
X4.9112Y-3.188
X4.93Y-3.965
X4.9348Y-2.875
X4.9693Y-3.187
X4.9693Y-3.7972
X4.984Y-2.875
X4.9988Y-3.7578
X5.0086Y-3.187
X5.0135Y-4.0826
X5.0283Y-3.7972
X5.048Y-3.187
X5.0578Y-3.7578
X5.0677Y-3.0295
X5.0824Y-2.875
X5.0874Y-3.187
X5.0874Y-3.7972
X5.1Y-4.415
X5.1169Y-3.7578
X5.1218Y-3.2263
X5.125Y-4.2115
X5.1464Y-3.0286
X5.1464Y-3.7972
X5.1759Y-3.7578
X5.1858Y-3.0639
X5.2055Y-3.7972
X5.2301Y-2.875
X5.255Y-3.2875
X5.26Y-4.1112
X5.2793Y-2.875
X5.3285Y-2.875
X5.3777Y-2.875
X5.3777Y-4.1685
X5.4269Y-2.875
X5.565Y-3.87
X5.625Y-2.875
X5.673Y-2.8228
X5.69Y-3.505
X5.69Y-4.19
X5.735Y-3.185
X5.74Y-3.54
X5.74Y-3.835
X5.74Y-4.19
X5.79Y-3.185
X5.79Y-3.505
X5.79Y-3.87
X5.79Y-4.19
X5.84Y-3.54
X5.84Y-3.835
X5.84Y-4.19
X5.8403Y-3.185
X5.89Y-3.185
X5.89Y-3.505
X5.89Y-3.87
X5.89Y-4.19
X5.94Y-3.185
X5.94Y-3.54
X5.94Y-3.835
X5.94Y-4.19
X5.965Y-4.11
X5.99Y-3.2214
X5.99Y-3.505
X5.99Y-3.87
X5.99Y-4.19
X6.04Y-3.185
X6.04Y-3.54
X6.04Y-3.835
X6.04Y-4.19
X6.09Y-3.2214
X6.09Y-3.505
X6.09Y-3.87
X6.09Y-4.19
X6.14Y-3.185
X6.14Y-3.54
X6.14Y-3.835
X6.14Y-4.19
X6.19Y-3.22
X6.19Y-3.505
X6.19Y-3.87
X6.19Y-3.9271
X6.19Y-4.15
X6.24Y-3.185
X6.24Y-3.54
X6.24Y-3.835
X6.24Y-4.19
X6.2648Y-4.15
X6.29Y-3.185
X6.29Y-3.505
X6.29Y-3.87
X6.29Y-4.19
X6.34Y-3.185
X6.34Y-3.54
X6.34Y-3.93
X6.34Y-4.19
X6.39Y-3.185
X6.39Y-3.505
X6.39Y-4.19
X6.3985Y-3.9285
X6.41Y-2.875
X6.44Y-3.22
X6.44Y-3.835
M30
