%TF.GenerationSoftware,KiCad,Pcbnew,8.0.7*%
%TF.CreationDate,2025-01-02T16:49:33-06:00*%
%TF.ProjectId,z88-flash-mod,7a38382d-666c-4617-9368-2d6d6f642e6b,rev?*%
%TF.SameCoordinates,Original*%
%TF.FileFunction,Paste,Top*%
%TF.FilePolarity,Positive*%
%FSLAX46Y46*%
G04 Gerber Fmt 4.6, Leading zero omitted, Abs format (unit mm)*
G04 Created by KiCad (PCBNEW 8.0.7) date 2025-01-02 16:49:33*
%MOMM*%
%LPD*%
G01*
G04 APERTURE LIST*
G04 Aperture macros list*
%AMRoundRect*
0 Rectangle with rounded corners*
0 $1 Rounding radius*
0 $2 $3 $4 $5 $6 $7 $8 $9 X,Y pos of 4 corners*
0 Add a 4 corners polygon primitive as box body*
4,1,4,$2,$3,$4,$5,$6,$7,$8,$9,$2,$3,0*
0 Add four circle primitives for the rounded corners*
1,1,$1+$1,$2,$3*
1,1,$1+$1,$4,$5*
1,1,$1+$1,$6,$7*
1,1,$1+$1,$8,$9*
0 Add four rect primitives between the rounded corners*
20,1,$1+$1,$2,$3,$4,$5,0*
20,1,$1+$1,$4,$5,$6,$7,0*
20,1,$1+$1,$6,$7,$8,$9,0*
20,1,$1+$1,$8,$9,$2,$3,0*%
G04 Aperture macros list end*
%ADD10RoundRect,0.250000X0.650000X-0.325000X0.650000X0.325000X-0.650000X0.325000X-0.650000X-0.325000X0*%
%ADD11RoundRect,0.150000X-0.150000X0.875000X-0.150000X-0.875000X0.150000X-0.875000X0.150000X0.875000X0*%
%ADD12RoundRect,0.150000X-0.150000X0.725000X-0.150000X-0.725000X0.150000X-0.725000X0.150000X0.725000X0*%
%ADD13RoundRect,0.250000X-0.375000X-0.625000X0.375000X-0.625000X0.375000X0.625000X-0.375000X0.625000X0*%
%ADD14RoundRect,0.075000X0.075000X-0.712500X0.075000X0.712500X-0.075000X0.712500X-0.075000X-0.712500X0*%
%ADD15RoundRect,0.250000X-0.350000X-0.450000X0.350000X-0.450000X0.350000X0.450000X-0.350000X0.450000X0*%
G04 APERTURE END LIST*
D10*
%TO.C,C2*%
X141351000Y-103202000D03*
X141351000Y-100252000D03*
%TD*%
%TO.C,C3*%
X141351000Y-87024000D03*
X141351000Y-84074000D03*
%TD*%
D11*
%TO.C,U2*%
X163576000Y-95250000D03*
X162306000Y-95250000D03*
X161036000Y-95250000D03*
X159766000Y-95250000D03*
X158496000Y-95250000D03*
X157226000Y-95250000D03*
X155956000Y-95250000D03*
X154686000Y-95250000D03*
X153416000Y-95250000D03*
X152146000Y-95250000D03*
X150876000Y-95250000D03*
X149606000Y-95250000D03*
X148336000Y-95250000D03*
X147066000Y-95250000D03*
X145796000Y-95250000D03*
X144526000Y-95250000D03*
X144526000Y-108350000D03*
X145796000Y-108350000D03*
X147066000Y-108350000D03*
X148336000Y-108350000D03*
X149606000Y-108350000D03*
X150876000Y-108350000D03*
X152146000Y-108350000D03*
X153416000Y-108350000D03*
X154686000Y-108350000D03*
X155956000Y-108350000D03*
X157226000Y-108350000D03*
X158496000Y-108350000D03*
X159766000Y-108350000D03*
X161036000Y-108350000D03*
X162306000Y-108350000D03*
X163576000Y-108350000D03*
%TD*%
D12*
%TO.C,U4*%
X132080000Y-105537000D03*
X130810000Y-105537000D03*
X129540000Y-105537000D03*
X128270000Y-105537000D03*
X127000000Y-105537000D03*
X125730000Y-105537000D03*
X124460000Y-105537000D03*
X123190000Y-105537000D03*
X123190000Y-110687000D03*
X124460000Y-110687000D03*
X125730000Y-110687000D03*
X127000000Y-110687000D03*
X128270000Y-110687000D03*
X129540000Y-110687000D03*
X130810000Y-110687000D03*
X132080000Y-110687000D03*
%TD*%
D13*
%TO.C,D1*%
X139570000Y-112903000D03*
X142370000Y-112903000D03*
%TD*%
D14*
%TO.C,U1*%
X119719000Y-98636500D03*
X120219000Y-98636500D03*
X120719000Y-98636500D03*
X121219000Y-98636500D03*
X121719000Y-98636500D03*
X122219000Y-98636500D03*
X122719000Y-98636500D03*
X123219000Y-98636500D03*
X123719000Y-98636500D03*
X124219000Y-98636500D03*
X124719000Y-98636500D03*
X125219000Y-98636500D03*
X125719000Y-98636500D03*
X126219000Y-98636500D03*
X126719000Y-98636500D03*
X127219000Y-98636500D03*
X127719000Y-98636500D03*
X128219000Y-98636500D03*
X128719000Y-98636500D03*
X129219000Y-98636500D03*
X129719000Y-98636500D03*
X130219000Y-98636500D03*
X130719000Y-98636500D03*
X131219000Y-98636500D03*
X131219000Y-79261500D03*
X130719000Y-79261500D03*
X130219000Y-79261500D03*
X129719000Y-79261500D03*
X129219000Y-79261500D03*
X128719000Y-79261500D03*
X128219000Y-79261500D03*
X127719000Y-79261500D03*
X127219000Y-79261500D03*
X126719000Y-79261500D03*
X126219000Y-79261500D03*
X125719000Y-79261500D03*
X125219000Y-79261500D03*
X124719000Y-79261500D03*
X124219000Y-79261500D03*
X123719000Y-79261500D03*
X123219000Y-79261500D03*
X122719000Y-79261500D03*
X122219000Y-79261500D03*
X121719000Y-79261500D03*
X121219000Y-79261500D03*
X120719000Y-79261500D03*
X120219000Y-79261500D03*
X119719000Y-79261500D03*
%TD*%
D15*
%TO.C,R1*%
X139954000Y-109982000D03*
X141954000Y-109982000D03*
%TD*%
D10*
%TO.C,C1*%
X134620000Y-90375000D03*
X134620000Y-87425000D03*
%TD*%
D11*
%TO.C,U3*%
X163576000Y-78994000D03*
X162306000Y-78994000D03*
X161036000Y-78994000D03*
X159766000Y-78994000D03*
X158496000Y-78994000D03*
X157226000Y-78994000D03*
X155956000Y-78994000D03*
X154686000Y-78994000D03*
X153416000Y-78994000D03*
X152146000Y-78994000D03*
X150876000Y-78994000D03*
X149606000Y-78994000D03*
X148336000Y-78994000D03*
X147066000Y-78994000D03*
X145796000Y-78994000D03*
X144526000Y-78994000D03*
X144526000Y-92094000D03*
X145796000Y-92094000D03*
X147066000Y-92094000D03*
X148336000Y-92094000D03*
X149606000Y-92094000D03*
X150876000Y-92094000D03*
X152146000Y-92094000D03*
X153416000Y-92094000D03*
X154686000Y-92094000D03*
X155956000Y-92094000D03*
X157226000Y-92094000D03*
X158496000Y-92094000D03*
X159766000Y-92094000D03*
X161036000Y-92094000D03*
X162306000Y-92094000D03*
X163576000Y-92094000D03*
%TD*%
M02*
