%TF.GenerationSoftware,KiCad,Pcbnew,8.0.7*%
%TF.CreationDate,2025-01-02T16:49:33-06:00*%
%TF.ProjectId,z88-flash-mod,7a38382d-666c-4617-9368-2d6d6f642e6b,rev?*%
%TF.SameCoordinates,Original*%
%TF.FileFunction,Legend,Top*%
%TF.FilePolarity,Positive*%
%FSLAX46Y46*%
G04 Gerber Fmt 4.6, Leading zero omitted, Abs format (unit mm)*
G04 Created by KiCad (PCBNEW 8.0.7) date 2025-01-02 16:49:33*
%MOMM*%
%LPD*%
G01*
G04 APERTURE LIST*
%ADD10C,0.120000*%
%ADD11C,0.200000*%
%ADD12C,0.150000*%
G04 APERTURE END LIST*
D10*
X116961000Y-76203000D02*
X117469000Y-76203000D01*
X116961000Y-76711000D02*
X117469000Y-76711000D01*
X116961000Y-74425000D02*
X116961000Y-75695000D01*
X116961000Y-76457000D02*
X117469000Y-76457000D01*
X116453000Y-74425000D02*
X116961000Y-74425000D01*
X116961000Y-76457000D02*
X116961000Y-76711000D01*
X117501000Y-73282000D02*
X116485000Y-74298000D01*
X116961000Y-75949000D02*
X117469000Y-75949000D01*
X117469000Y-76457000D02*
X116961000Y-76457000D01*
X116961000Y-75949000D02*
X116961000Y-76203000D01*
X116961000Y-75695000D02*
X117469000Y-75695000D01*
X118485000Y-74425000D02*
X117977000Y-74425000D01*
X117977000Y-76203000D02*
X117469000Y-76203000D01*
X117977000Y-75949000D02*
X117469000Y-75949000D01*
X117977000Y-74425000D02*
X117977000Y-75695000D01*
X117977000Y-76457000D02*
X117469000Y-76457000D01*
X117977000Y-75695000D02*
X117469000Y-75695000D01*
X117501000Y-73282000D02*
X118517000Y-74298000D01*
X117977000Y-76711000D02*
X117469000Y-76711000D01*
X117977000Y-76457000D02*
X117977000Y-76711000D01*
X117977000Y-75949000D02*
X117977000Y-76203000D01*
D11*
X116794552Y-109150755D02*
X117604076Y-109150755D01*
X117604076Y-109150755D02*
X117699314Y-109198374D01*
X117699314Y-109198374D02*
X117746933Y-109245993D01*
X117746933Y-109245993D02*
X117794552Y-109341231D01*
X117794552Y-109341231D02*
X117794552Y-109484088D01*
X117794552Y-109484088D02*
X117746933Y-109579326D01*
X117413600Y-109150755D02*
X117461219Y-109245993D01*
X117461219Y-109245993D02*
X117461219Y-109436469D01*
X117461219Y-109436469D02*
X117413600Y-109531707D01*
X117413600Y-109531707D02*
X117365980Y-109579326D01*
X117365980Y-109579326D02*
X117270742Y-109626945D01*
X117270742Y-109626945D02*
X116985028Y-109626945D01*
X116985028Y-109626945D02*
X116889790Y-109579326D01*
X116889790Y-109579326D02*
X116842171Y-109531707D01*
X116842171Y-109531707D02*
X116794552Y-109436469D01*
X116794552Y-109436469D02*
X116794552Y-109245993D01*
X116794552Y-109245993D02*
X116842171Y-109150755D01*
X117461219Y-108674564D02*
X116794552Y-108674564D01*
X116461219Y-108674564D02*
X116508838Y-108722183D01*
X116508838Y-108722183D02*
X116556457Y-108674564D01*
X116556457Y-108674564D02*
X116508838Y-108626945D01*
X116508838Y-108626945D02*
X116461219Y-108674564D01*
X116461219Y-108674564D02*
X116556457Y-108674564D01*
X116794552Y-108341231D02*
X116794552Y-107960279D01*
X116461219Y-108198374D02*
X117318361Y-108198374D01*
X117318361Y-108198374D02*
X117413600Y-108150755D01*
X117413600Y-108150755D02*
X117461219Y-108055517D01*
X117461219Y-108055517D02*
X117461219Y-107960279D01*
X117461219Y-107626945D02*
X116461219Y-107626945D01*
X117461219Y-107198374D02*
X116937409Y-107198374D01*
X116937409Y-107198374D02*
X116842171Y-107245993D01*
X116842171Y-107245993D02*
X116794552Y-107341231D01*
X116794552Y-107341231D02*
X116794552Y-107484088D01*
X116794552Y-107484088D02*
X116842171Y-107579326D01*
X116842171Y-107579326D02*
X116889790Y-107626945D01*
X116794552Y-106293612D02*
X117461219Y-106293612D01*
X116794552Y-106722183D02*
X117318361Y-106722183D01*
X117318361Y-106722183D02*
X117413600Y-106674564D01*
X117413600Y-106674564D02*
X117461219Y-106579326D01*
X117461219Y-106579326D02*
X117461219Y-106436469D01*
X117461219Y-106436469D02*
X117413600Y-106341231D01*
X117413600Y-106341231D02*
X117365980Y-106293612D01*
X117461219Y-105817421D02*
X116461219Y-105817421D01*
X116842171Y-105817421D02*
X116794552Y-105722183D01*
X116794552Y-105722183D02*
X116794552Y-105531707D01*
X116794552Y-105531707D02*
X116842171Y-105436469D01*
X116842171Y-105436469D02*
X116889790Y-105388850D01*
X116889790Y-105388850D02*
X116985028Y-105341231D01*
X116985028Y-105341231D02*
X117270742Y-105341231D01*
X117270742Y-105341231D02*
X117365980Y-105388850D01*
X117365980Y-105388850D02*
X117413600Y-105436469D01*
X117413600Y-105436469D02*
X117461219Y-105531707D01*
X117461219Y-105531707D02*
X117461219Y-105722183D01*
X117461219Y-105722183D02*
X117413600Y-105817421D01*
X117365980Y-104912659D02*
X117413600Y-104865040D01*
X117413600Y-104865040D02*
X117461219Y-104912659D01*
X117461219Y-104912659D02*
X117413600Y-104960278D01*
X117413600Y-104960278D02*
X117365980Y-104912659D01*
X117365980Y-104912659D02*
X117461219Y-104912659D01*
X117413600Y-104007898D02*
X117461219Y-104103136D01*
X117461219Y-104103136D02*
X117461219Y-104293612D01*
X117461219Y-104293612D02*
X117413600Y-104388850D01*
X117413600Y-104388850D02*
X117365980Y-104436469D01*
X117365980Y-104436469D02*
X117270742Y-104484088D01*
X117270742Y-104484088D02*
X116985028Y-104484088D01*
X116985028Y-104484088D02*
X116889790Y-104436469D01*
X116889790Y-104436469D02*
X116842171Y-104388850D01*
X116842171Y-104388850D02*
X116794552Y-104293612D01*
X116794552Y-104293612D02*
X116794552Y-104103136D01*
X116794552Y-104103136D02*
X116842171Y-104007898D01*
X117461219Y-103436469D02*
X117413600Y-103531707D01*
X117413600Y-103531707D02*
X117365980Y-103579326D01*
X117365980Y-103579326D02*
X117270742Y-103626945D01*
X117270742Y-103626945D02*
X116985028Y-103626945D01*
X116985028Y-103626945D02*
X116889790Y-103579326D01*
X116889790Y-103579326D02*
X116842171Y-103531707D01*
X116842171Y-103531707D02*
X116794552Y-103436469D01*
X116794552Y-103436469D02*
X116794552Y-103293612D01*
X116794552Y-103293612D02*
X116842171Y-103198374D01*
X116842171Y-103198374D02*
X116889790Y-103150755D01*
X116889790Y-103150755D02*
X116985028Y-103103136D01*
X116985028Y-103103136D02*
X117270742Y-103103136D01*
X117270742Y-103103136D02*
X117365980Y-103150755D01*
X117365980Y-103150755D02*
X117413600Y-103198374D01*
X117413600Y-103198374D02*
X117461219Y-103293612D01*
X117461219Y-103293612D02*
X117461219Y-103436469D01*
X117461219Y-102674564D02*
X116794552Y-102674564D01*
X116889790Y-102674564D02*
X116842171Y-102626945D01*
X116842171Y-102626945D02*
X116794552Y-102531707D01*
X116794552Y-102531707D02*
X116794552Y-102388850D01*
X116794552Y-102388850D02*
X116842171Y-102293612D01*
X116842171Y-102293612D02*
X116937409Y-102245993D01*
X116937409Y-102245993D02*
X117461219Y-102245993D01*
X116937409Y-102245993D02*
X116842171Y-102198374D01*
X116842171Y-102198374D02*
X116794552Y-102103136D01*
X116794552Y-102103136D02*
X116794552Y-101960279D01*
X116794552Y-101960279D02*
X116842171Y-101865040D01*
X116842171Y-101865040D02*
X116937409Y-101817421D01*
X116937409Y-101817421D02*
X117461219Y-101817421D01*
X116413600Y-100626946D02*
X117699314Y-101484088D01*
X117461219Y-100293612D02*
X116794552Y-100293612D01*
X116889790Y-100293612D02*
X116842171Y-100245993D01*
X116842171Y-100245993D02*
X116794552Y-100150755D01*
X116794552Y-100150755D02*
X116794552Y-100007898D01*
X116794552Y-100007898D02*
X116842171Y-99912660D01*
X116842171Y-99912660D02*
X116937409Y-99865041D01*
X116937409Y-99865041D02*
X117461219Y-99865041D01*
X116937409Y-99865041D02*
X116842171Y-99817422D01*
X116842171Y-99817422D02*
X116794552Y-99722184D01*
X116794552Y-99722184D02*
X116794552Y-99579327D01*
X116794552Y-99579327D02*
X116842171Y-99484088D01*
X116842171Y-99484088D02*
X116937409Y-99436469D01*
X116937409Y-99436469D02*
X117461219Y-99436469D01*
X117461219Y-98531708D02*
X116937409Y-98531708D01*
X116937409Y-98531708D02*
X116842171Y-98579327D01*
X116842171Y-98579327D02*
X116794552Y-98674565D01*
X116794552Y-98674565D02*
X116794552Y-98865041D01*
X116794552Y-98865041D02*
X116842171Y-98960279D01*
X117413600Y-98531708D02*
X117461219Y-98626946D01*
X117461219Y-98626946D02*
X117461219Y-98865041D01*
X117461219Y-98865041D02*
X117413600Y-98960279D01*
X117413600Y-98960279D02*
X117318361Y-99007898D01*
X117318361Y-99007898D02*
X117223123Y-99007898D01*
X117223123Y-99007898D02*
X117127885Y-98960279D01*
X117127885Y-98960279D02*
X117080266Y-98865041D01*
X117080266Y-98865041D02*
X117080266Y-98626946D01*
X117080266Y-98626946D02*
X117032647Y-98531708D01*
X117461219Y-98055517D02*
X116794552Y-98055517D01*
X116985028Y-98055517D02*
X116889790Y-98007898D01*
X116889790Y-98007898D02*
X116842171Y-97960279D01*
X116842171Y-97960279D02*
X116794552Y-97865041D01*
X116794552Y-97865041D02*
X116794552Y-97769803D01*
X117461219Y-97436469D02*
X116461219Y-97436469D01*
X117080266Y-97341231D02*
X117461219Y-97055517D01*
X116794552Y-97055517D02*
X117175504Y-97436469D01*
X117461219Y-96198374D02*
X116937409Y-96198374D01*
X116937409Y-96198374D02*
X116842171Y-96245993D01*
X116842171Y-96245993D02*
X116794552Y-96341231D01*
X116794552Y-96341231D02*
X116794552Y-96531707D01*
X116794552Y-96531707D02*
X116842171Y-96626945D01*
X117413600Y-96198374D02*
X117461219Y-96293612D01*
X117461219Y-96293612D02*
X117461219Y-96531707D01*
X117461219Y-96531707D02*
X117413600Y-96626945D01*
X117413600Y-96626945D02*
X117318361Y-96674564D01*
X117318361Y-96674564D02*
X117223123Y-96674564D01*
X117223123Y-96674564D02*
X117127885Y-96626945D01*
X117127885Y-96626945D02*
X117080266Y-96531707D01*
X117080266Y-96531707D02*
X117080266Y-96293612D01*
X117080266Y-96293612D02*
X117032647Y-96198374D01*
X116794552Y-95293612D02*
X117461219Y-95293612D01*
X116794552Y-95722183D02*
X117318361Y-95722183D01*
X117318361Y-95722183D02*
X117413600Y-95674564D01*
X117413600Y-95674564D02*
X117461219Y-95579326D01*
X117461219Y-95579326D02*
X117461219Y-95436469D01*
X117461219Y-95436469D02*
X117413600Y-95341231D01*
X117413600Y-95341231D02*
X117365980Y-95293612D01*
X117461219Y-94388850D02*
X116461219Y-94388850D01*
X117413600Y-94388850D02*
X117461219Y-94484088D01*
X117461219Y-94484088D02*
X117461219Y-94674564D01*
X117461219Y-94674564D02*
X117413600Y-94769802D01*
X117413600Y-94769802D02*
X117365980Y-94817421D01*
X117365980Y-94817421D02*
X117270742Y-94865040D01*
X117270742Y-94865040D02*
X116985028Y-94865040D01*
X116985028Y-94865040D02*
X116889790Y-94817421D01*
X116889790Y-94817421D02*
X116842171Y-94769802D01*
X116842171Y-94769802D02*
X116794552Y-94674564D01*
X116794552Y-94674564D02*
X116794552Y-94484088D01*
X116794552Y-94484088D02*
X116842171Y-94388850D01*
X117461219Y-93484088D02*
X116937409Y-93484088D01*
X116937409Y-93484088D02*
X116842171Y-93531707D01*
X116842171Y-93531707D02*
X116794552Y-93626945D01*
X116794552Y-93626945D02*
X116794552Y-93817421D01*
X116794552Y-93817421D02*
X116842171Y-93912659D01*
X117413600Y-93484088D02*
X117461219Y-93579326D01*
X117461219Y-93579326D02*
X117461219Y-93817421D01*
X117461219Y-93817421D02*
X117413600Y-93912659D01*
X117413600Y-93912659D02*
X117318361Y-93960278D01*
X117318361Y-93960278D02*
X117223123Y-93960278D01*
X117223123Y-93960278D02*
X117127885Y-93912659D01*
X117127885Y-93912659D02*
X117080266Y-93817421D01*
X117080266Y-93817421D02*
X117080266Y-93579326D01*
X117080266Y-93579326D02*
X117032647Y-93484088D01*
X117413600Y-92579326D02*
X117461219Y-92674564D01*
X117461219Y-92674564D02*
X117461219Y-92865040D01*
X117461219Y-92865040D02*
X117413600Y-92960278D01*
X117413600Y-92960278D02*
X117365980Y-93007897D01*
X117365980Y-93007897D02*
X117270742Y-93055516D01*
X117270742Y-93055516D02*
X116985028Y-93055516D01*
X116985028Y-93055516D02*
X116889790Y-93007897D01*
X116889790Y-93007897D02*
X116842171Y-92960278D01*
X116842171Y-92960278D02*
X116794552Y-92865040D01*
X116794552Y-92865040D02*
X116794552Y-92674564D01*
X116794552Y-92674564D02*
X116842171Y-92579326D01*
X117461219Y-92150754D02*
X116794552Y-92150754D01*
X116461219Y-92150754D02*
X116508838Y-92198373D01*
X116508838Y-92198373D02*
X116556457Y-92150754D01*
X116556457Y-92150754D02*
X116508838Y-92103135D01*
X116508838Y-92103135D02*
X116461219Y-92150754D01*
X116461219Y-92150754D02*
X116556457Y-92150754D01*
X116794552Y-91817421D02*
X116794552Y-91436469D01*
X116461219Y-91674564D02*
X117318361Y-91674564D01*
X117318361Y-91674564D02*
X117413600Y-91626945D01*
X117413600Y-91626945D02*
X117461219Y-91531707D01*
X117461219Y-91531707D02*
X117461219Y-91436469D01*
X116794552Y-91198373D02*
X117461219Y-90960278D01*
X116794552Y-90722183D02*
X117461219Y-90960278D01*
X117461219Y-90960278D02*
X117699314Y-91055516D01*
X117699314Y-91055516D02*
X117746933Y-91103135D01*
X117746933Y-91103135D02*
X117794552Y-91198373D01*
X116413600Y-89626945D02*
X117699314Y-90484087D01*
X116794552Y-89388849D02*
X116794552Y-88865040D01*
X116794552Y-88865040D02*
X117461219Y-89388849D01*
X117461219Y-89388849D02*
X117461219Y-88865040D01*
X116889790Y-88341230D02*
X116842171Y-88436468D01*
X116842171Y-88436468D02*
X116794552Y-88484087D01*
X116794552Y-88484087D02*
X116699314Y-88531706D01*
X116699314Y-88531706D02*
X116651695Y-88531706D01*
X116651695Y-88531706D02*
X116556457Y-88484087D01*
X116556457Y-88484087D02*
X116508838Y-88436468D01*
X116508838Y-88436468D02*
X116461219Y-88341230D01*
X116461219Y-88341230D02*
X116461219Y-88150754D01*
X116461219Y-88150754D02*
X116508838Y-88055516D01*
X116508838Y-88055516D02*
X116556457Y-88007897D01*
X116556457Y-88007897D02*
X116651695Y-87960278D01*
X116651695Y-87960278D02*
X116699314Y-87960278D01*
X116699314Y-87960278D02*
X116794552Y-88007897D01*
X116794552Y-88007897D02*
X116842171Y-88055516D01*
X116842171Y-88055516D02*
X116889790Y-88150754D01*
X116889790Y-88150754D02*
X116889790Y-88341230D01*
X116889790Y-88341230D02*
X116937409Y-88436468D01*
X116937409Y-88436468D02*
X116985028Y-88484087D01*
X116985028Y-88484087D02*
X117080266Y-88531706D01*
X117080266Y-88531706D02*
X117270742Y-88531706D01*
X117270742Y-88531706D02*
X117365980Y-88484087D01*
X117365980Y-88484087D02*
X117413600Y-88436468D01*
X117413600Y-88436468D02*
X117461219Y-88341230D01*
X117461219Y-88341230D02*
X117461219Y-88150754D01*
X117461219Y-88150754D02*
X117413600Y-88055516D01*
X117413600Y-88055516D02*
X117365980Y-88007897D01*
X117365980Y-88007897D02*
X117270742Y-87960278D01*
X117270742Y-87960278D02*
X117080266Y-87960278D01*
X117080266Y-87960278D02*
X116985028Y-88007897D01*
X116985028Y-88007897D02*
X116937409Y-88055516D01*
X116937409Y-88055516D02*
X116889790Y-88150754D01*
X116889790Y-87388849D02*
X116842171Y-87484087D01*
X116842171Y-87484087D02*
X116794552Y-87531706D01*
X116794552Y-87531706D02*
X116699314Y-87579325D01*
X116699314Y-87579325D02*
X116651695Y-87579325D01*
X116651695Y-87579325D02*
X116556457Y-87531706D01*
X116556457Y-87531706D02*
X116508838Y-87484087D01*
X116508838Y-87484087D02*
X116461219Y-87388849D01*
X116461219Y-87388849D02*
X116461219Y-87198373D01*
X116461219Y-87198373D02*
X116508838Y-87103135D01*
X116508838Y-87103135D02*
X116556457Y-87055516D01*
X116556457Y-87055516D02*
X116651695Y-87007897D01*
X116651695Y-87007897D02*
X116699314Y-87007897D01*
X116699314Y-87007897D02*
X116794552Y-87055516D01*
X116794552Y-87055516D02*
X116842171Y-87103135D01*
X116842171Y-87103135D02*
X116889790Y-87198373D01*
X116889790Y-87198373D02*
X116889790Y-87388849D01*
X116889790Y-87388849D02*
X116937409Y-87484087D01*
X116937409Y-87484087D02*
X116985028Y-87531706D01*
X116985028Y-87531706D02*
X117080266Y-87579325D01*
X117080266Y-87579325D02*
X117270742Y-87579325D01*
X117270742Y-87579325D02*
X117365980Y-87531706D01*
X117365980Y-87531706D02*
X117413600Y-87484087D01*
X117413600Y-87484087D02*
X117461219Y-87388849D01*
X117461219Y-87388849D02*
X117461219Y-87198373D01*
X117461219Y-87198373D02*
X117413600Y-87103135D01*
X117413600Y-87103135D02*
X117365980Y-87055516D01*
X117365980Y-87055516D02*
X117270742Y-87007897D01*
X117270742Y-87007897D02*
X117080266Y-87007897D01*
X117080266Y-87007897D02*
X116985028Y-87055516D01*
X116985028Y-87055516D02*
X116937409Y-87103135D01*
X116937409Y-87103135D02*
X116889790Y-87198373D01*
X117080266Y-86579325D02*
X117080266Y-85817421D01*
X116794552Y-85484087D02*
X116794552Y-85103135D01*
X117461219Y-85341230D02*
X116604076Y-85341230D01*
X116604076Y-85341230D02*
X116508838Y-85293611D01*
X116508838Y-85293611D02*
X116461219Y-85198373D01*
X116461219Y-85198373D02*
X116461219Y-85103135D01*
X117461219Y-84626944D02*
X117413600Y-84722182D01*
X117413600Y-84722182D02*
X117318361Y-84769801D01*
X117318361Y-84769801D02*
X116461219Y-84769801D01*
X117461219Y-83817420D02*
X116937409Y-83817420D01*
X116937409Y-83817420D02*
X116842171Y-83865039D01*
X116842171Y-83865039D02*
X116794552Y-83960277D01*
X116794552Y-83960277D02*
X116794552Y-84150753D01*
X116794552Y-84150753D02*
X116842171Y-84245991D01*
X117413600Y-83817420D02*
X117461219Y-83912658D01*
X117461219Y-83912658D02*
X117461219Y-84150753D01*
X117461219Y-84150753D02*
X117413600Y-84245991D01*
X117413600Y-84245991D02*
X117318361Y-84293610D01*
X117318361Y-84293610D02*
X117223123Y-84293610D01*
X117223123Y-84293610D02*
X117127885Y-84245991D01*
X117127885Y-84245991D02*
X117080266Y-84150753D01*
X117080266Y-84150753D02*
X117080266Y-83912658D01*
X117080266Y-83912658D02*
X117032647Y-83817420D01*
X117413600Y-83388848D02*
X117461219Y-83293610D01*
X117461219Y-83293610D02*
X117461219Y-83103134D01*
X117461219Y-83103134D02*
X117413600Y-83007896D01*
X117413600Y-83007896D02*
X117318361Y-82960277D01*
X117318361Y-82960277D02*
X117270742Y-82960277D01*
X117270742Y-82960277D02*
X117175504Y-83007896D01*
X117175504Y-83007896D02*
X117127885Y-83103134D01*
X117127885Y-83103134D02*
X117127885Y-83245991D01*
X117127885Y-83245991D02*
X117080266Y-83341229D01*
X117080266Y-83341229D02*
X116985028Y-83388848D01*
X116985028Y-83388848D02*
X116937409Y-83388848D01*
X116937409Y-83388848D02*
X116842171Y-83341229D01*
X116842171Y-83341229D02*
X116794552Y-83245991D01*
X116794552Y-83245991D02*
X116794552Y-83103134D01*
X116794552Y-83103134D02*
X116842171Y-83007896D01*
X117461219Y-82531705D02*
X116461219Y-82531705D01*
X117461219Y-82103134D02*
X116937409Y-82103134D01*
X116937409Y-82103134D02*
X116842171Y-82150753D01*
X116842171Y-82150753D02*
X116794552Y-82245991D01*
X116794552Y-82245991D02*
X116794552Y-82388848D01*
X116794552Y-82388848D02*
X116842171Y-82484086D01*
X116842171Y-82484086D02*
X116889790Y-82531705D01*
X117080266Y-81626943D02*
X117080266Y-80865039D01*
X117461219Y-80388848D02*
X116794552Y-80388848D01*
X116889790Y-80388848D02*
X116842171Y-80341229D01*
X116842171Y-80341229D02*
X116794552Y-80245991D01*
X116794552Y-80245991D02*
X116794552Y-80103134D01*
X116794552Y-80103134D02*
X116842171Y-80007896D01*
X116842171Y-80007896D02*
X116937409Y-79960277D01*
X116937409Y-79960277D02*
X117461219Y-79960277D01*
X116937409Y-79960277D02*
X116842171Y-79912658D01*
X116842171Y-79912658D02*
X116794552Y-79817420D01*
X116794552Y-79817420D02*
X116794552Y-79674563D01*
X116794552Y-79674563D02*
X116842171Y-79579324D01*
X116842171Y-79579324D02*
X116937409Y-79531705D01*
X116937409Y-79531705D02*
X117461219Y-79531705D01*
X117461219Y-78912658D02*
X117413600Y-79007896D01*
X117413600Y-79007896D02*
X117365980Y-79055515D01*
X117365980Y-79055515D02*
X117270742Y-79103134D01*
X117270742Y-79103134D02*
X116985028Y-79103134D01*
X116985028Y-79103134D02*
X116889790Y-79055515D01*
X116889790Y-79055515D02*
X116842171Y-79007896D01*
X116842171Y-79007896D02*
X116794552Y-78912658D01*
X116794552Y-78912658D02*
X116794552Y-78769801D01*
X116794552Y-78769801D02*
X116842171Y-78674563D01*
X116842171Y-78674563D02*
X116889790Y-78626944D01*
X116889790Y-78626944D02*
X116985028Y-78579325D01*
X116985028Y-78579325D02*
X117270742Y-78579325D01*
X117270742Y-78579325D02*
X117365980Y-78626944D01*
X117365980Y-78626944D02*
X117413600Y-78674563D01*
X117413600Y-78674563D02*
X117461219Y-78769801D01*
X117461219Y-78769801D02*
X117461219Y-78912658D01*
X117461219Y-77722182D02*
X116461219Y-77722182D01*
X117413600Y-77722182D02*
X117461219Y-77817420D01*
X117461219Y-77817420D02*
X117461219Y-78007896D01*
X117461219Y-78007896D02*
X117413600Y-78103134D01*
X117413600Y-78103134D02*
X117365980Y-78150753D01*
X117365980Y-78150753D02*
X117270742Y-78198372D01*
X117270742Y-78198372D02*
X116985028Y-78198372D01*
X116985028Y-78198372D02*
X116889790Y-78150753D01*
X116889790Y-78150753D02*
X116842171Y-78103134D01*
X116842171Y-78103134D02*
X116794552Y-78007896D01*
X116794552Y-78007896D02*
X116794552Y-77817420D01*
X116794552Y-77817420D02*
X116842171Y-77722182D01*
D12*
X139860580Y-101893666D02*
X139908200Y-101941285D01*
X139908200Y-101941285D02*
X139955819Y-102084142D01*
X139955819Y-102084142D02*
X139955819Y-102179380D01*
X139955819Y-102179380D02*
X139908200Y-102322237D01*
X139908200Y-102322237D02*
X139812961Y-102417475D01*
X139812961Y-102417475D02*
X139717723Y-102465094D01*
X139717723Y-102465094D02*
X139527247Y-102512713D01*
X139527247Y-102512713D02*
X139384390Y-102512713D01*
X139384390Y-102512713D02*
X139193914Y-102465094D01*
X139193914Y-102465094D02*
X139098676Y-102417475D01*
X139098676Y-102417475D02*
X139003438Y-102322237D01*
X139003438Y-102322237D02*
X138955819Y-102179380D01*
X138955819Y-102179380D02*
X138955819Y-102084142D01*
X138955819Y-102084142D02*
X139003438Y-101941285D01*
X139003438Y-101941285D02*
X139051057Y-101893666D01*
X139051057Y-101512713D02*
X139003438Y-101465094D01*
X139003438Y-101465094D02*
X138955819Y-101369856D01*
X138955819Y-101369856D02*
X138955819Y-101131761D01*
X138955819Y-101131761D02*
X139003438Y-101036523D01*
X139003438Y-101036523D02*
X139051057Y-100988904D01*
X139051057Y-100988904D02*
X139146295Y-100941285D01*
X139146295Y-100941285D02*
X139241533Y-100941285D01*
X139241533Y-100941285D02*
X139384390Y-100988904D01*
X139384390Y-100988904D02*
X139955819Y-101560332D01*
X139955819Y-101560332D02*
X139955819Y-100941285D01*
X139860580Y-85715666D02*
X139908200Y-85763285D01*
X139908200Y-85763285D02*
X139955819Y-85906142D01*
X139955819Y-85906142D02*
X139955819Y-86001380D01*
X139955819Y-86001380D02*
X139908200Y-86144237D01*
X139908200Y-86144237D02*
X139812961Y-86239475D01*
X139812961Y-86239475D02*
X139717723Y-86287094D01*
X139717723Y-86287094D02*
X139527247Y-86334713D01*
X139527247Y-86334713D02*
X139384390Y-86334713D01*
X139384390Y-86334713D02*
X139193914Y-86287094D01*
X139193914Y-86287094D02*
X139098676Y-86239475D01*
X139098676Y-86239475D02*
X139003438Y-86144237D01*
X139003438Y-86144237D02*
X138955819Y-86001380D01*
X138955819Y-86001380D02*
X138955819Y-85906142D01*
X138955819Y-85906142D02*
X139003438Y-85763285D01*
X139003438Y-85763285D02*
X139051057Y-85715666D01*
X138955819Y-85382332D02*
X138955819Y-84763285D01*
X138955819Y-84763285D02*
X139336771Y-85096618D01*
X139336771Y-85096618D02*
X139336771Y-84953761D01*
X139336771Y-84953761D02*
X139384390Y-84858523D01*
X139384390Y-84858523D02*
X139432009Y-84810904D01*
X139432009Y-84810904D02*
X139527247Y-84763285D01*
X139527247Y-84763285D02*
X139765342Y-84763285D01*
X139765342Y-84763285D02*
X139860580Y-84810904D01*
X139860580Y-84810904D02*
X139908200Y-84858523D01*
X139908200Y-84858523D02*
X139955819Y-84953761D01*
X139955819Y-84953761D02*
X139955819Y-85239475D01*
X139955819Y-85239475D02*
X139908200Y-85334713D01*
X139908200Y-85334713D02*
X139860580Y-85382332D01*
X164705819Y-102561904D02*
X165515342Y-102561904D01*
X165515342Y-102561904D02*
X165610580Y-102514285D01*
X165610580Y-102514285D02*
X165658200Y-102466666D01*
X165658200Y-102466666D02*
X165705819Y-102371428D01*
X165705819Y-102371428D02*
X165705819Y-102180952D01*
X165705819Y-102180952D02*
X165658200Y-102085714D01*
X165658200Y-102085714D02*
X165610580Y-102038095D01*
X165610580Y-102038095D02*
X165515342Y-101990476D01*
X165515342Y-101990476D02*
X164705819Y-101990476D01*
X164801057Y-101561904D02*
X164753438Y-101514285D01*
X164753438Y-101514285D02*
X164705819Y-101419047D01*
X164705819Y-101419047D02*
X164705819Y-101180952D01*
X164705819Y-101180952D02*
X164753438Y-101085714D01*
X164753438Y-101085714D02*
X164801057Y-101038095D01*
X164801057Y-101038095D02*
X164896295Y-100990476D01*
X164896295Y-100990476D02*
X164991533Y-100990476D01*
X164991533Y-100990476D02*
X165134390Y-101038095D01*
X165134390Y-101038095D02*
X165705819Y-101609523D01*
X165705819Y-101609523D02*
X165705819Y-100990476D01*
X121120819Y-108711904D02*
X121930342Y-108711904D01*
X121930342Y-108711904D02*
X122025580Y-108664285D01*
X122025580Y-108664285D02*
X122073200Y-108616666D01*
X122073200Y-108616666D02*
X122120819Y-108521428D01*
X122120819Y-108521428D02*
X122120819Y-108330952D01*
X122120819Y-108330952D02*
X122073200Y-108235714D01*
X122073200Y-108235714D02*
X122025580Y-108188095D01*
X122025580Y-108188095D02*
X121930342Y-108140476D01*
X121930342Y-108140476D02*
X121120819Y-108140476D01*
X121454152Y-107235714D02*
X122120819Y-107235714D01*
X121073200Y-107473809D02*
X121787485Y-107711904D01*
X121787485Y-107711904D02*
X121787485Y-107092857D01*
X143663905Y-112722819D02*
X143663905Y-111722819D01*
X143663905Y-111722819D02*
X143902000Y-111722819D01*
X143902000Y-111722819D02*
X144044857Y-111770438D01*
X144044857Y-111770438D02*
X144140095Y-111865676D01*
X144140095Y-111865676D02*
X144187714Y-111960914D01*
X144187714Y-111960914D02*
X144235333Y-112151390D01*
X144235333Y-112151390D02*
X144235333Y-112294247D01*
X144235333Y-112294247D02*
X144187714Y-112484723D01*
X144187714Y-112484723D02*
X144140095Y-112579961D01*
X144140095Y-112579961D02*
X144044857Y-112675200D01*
X144044857Y-112675200D02*
X143902000Y-112722819D01*
X143902000Y-112722819D02*
X143663905Y-112722819D01*
X145187714Y-112722819D02*
X144616286Y-112722819D01*
X144902000Y-112722819D02*
X144902000Y-111722819D01*
X144902000Y-111722819D02*
X144806762Y-111865676D01*
X144806762Y-111865676D02*
X144711524Y-111960914D01*
X144711524Y-111960914D02*
X144616286Y-112008533D01*
X144140142Y-114119819D02*
X143663952Y-114119819D01*
X143663952Y-114119819D02*
X143663952Y-113119819D01*
X144473476Y-113596009D02*
X144806809Y-113596009D01*
X144949666Y-114119819D02*
X144473476Y-114119819D01*
X144473476Y-114119819D02*
X144473476Y-113119819D01*
X144473476Y-113119819D02*
X144949666Y-113119819D01*
X145378238Y-114119819D02*
X145378238Y-113119819D01*
X145378238Y-113119819D02*
X145616333Y-113119819D01*
X145616333Y-113119819D02*
X145759190Y-113167438D01*
X145759190Y-113167438D02*
X145854428Y-113262676D01*
X145854428Y-113262676D02*
X145902047Y-113357914D01*
X145902047Y-113357914D02*
X145949666Y-113548390D01*
X145949666Y-113548390D02*
X145949666Y-113691247D01*
X145949666Y-113691247D02*
X145902047Y-113881723D01*
X145902047Y-113881723D02*
X145854428Y-113976961D01*
X145854428Y-113976961D02*
X145759190Y-114072200D01*
X145759190Y-114072200D02*
X145616333Y-114119819D01*
X145616333Y-114119819D02*
X145378238Y-114119819D01*
X117973819Y-89710904D02*
X118783342Y-89710904D01*
X118783342Y-89710904D02*
X118878580Y-89663285D01*
X118878580Y-89663285D02*
X118926200Y-89615666D01*
X118926200Y-89615666D02*
X118973819Y-89520428D01*
X118973819Y-89520428D02*
X118973819Y-89329952D01*
X118973819Y-89329952D02*
X118926200Y-89234714D01*
X118926200Y-89234714D02*
X118878580Y-89187095D01*
X118878580Y-89187095D02*
X118783342Y-89139476D01*
X118783342Y-89139476D02*
X117973819Y-89139476D01*
X118973819Y-88139476D02*
X118973819Y-88710904D01*
X118973819Y-88425190D02*
X117973819Y-88425190D01*
X117973819Y-88425190D02*
X118116676Y-88520428D01*
X118116676Y-88520428D02*
X118211914Y-88615666D01*
X118211914Y-88615666D02*
X118259533Y-88710904D01*
X133088819Y-109134285D02*
X133088819Y-109610475D01*
X133088819Y-109610475D02*
X133565009Y-109658094D01*
X133565009Y-109658094D02*
X133517390Y-109610475D01*
X133517390Y-109610475D02*
X133469771Y-109515237D01*
X133469771Y-109515237D02*
X133469771Y-109277142D01*
X133469771Y-109277142D02*
X133517390Y-109181904D01*
X133517390Y-109181904D02*
X133565009Y-109134285D01*
X133565009Y-109134285D02*
X133660247Y-109086666D01*
X133660247Y-109086666D02*
X133898342Y-109086666D01*
X133898342Y-109086666D02*
X133993580Y-109134285D01*
X133993580Y-109134285D02*
X134041200Y-109181904D01*
X134041200Y-109181904D02*
X134088819Y-109277142D01*
X134088819Y-109277142D02*
X134088819Y-109515237D01*
X134088819Y-109515237D02*
X134041200Y-109610475D01*
X134041200Y-109610475D02*
X133993580Y-109658094D01*
X134088819Y-108134285D02*
X134088819Y-108705713D01*
X134088819Y-108419999D02*
X133088819Y-108419999D01*
X133088819Y-108419999D02*
X133231676Y-108515237D01*
X133231676Y-108515237D02*
X133326914Y-108610475D01*
X133326914Y-108610475D02*
X133374533Y-108705713D01*
X133184057Y-107753332D02*
X133136438Y-107705713D01*
X133136438Y-107705713D02*
X133088819Y-107610475D01*
X133088819Y-107610475D02*
X133088819Y-107372380D01*
X133088819Y-107372380D02*
X133136438Y-107277142D01*
X133136438Y-107277142D02*
X133184057Y-107229523D01*
X133184057Y-107229523D02*
X133279295Y-107181904D01*
X133279295Y-107181904D02*
X133374533Y-107181904D01*
X133374533Y-107181904D02*
X133517390Y-107229523D01*
X133517390Y-107229523D02*
X134088819Y-107800951D01*
X134088819Y-107800951D02*
X134088819Y-107181904D01*
X134088819Y-106753332D02*
X133088819Y-106753332D01*
X134088819Y-106181904D02*
X133517390Y-106610475D01*
X133088819Y-106181904D02*
X133660247Y-106753332D01*
X140803333Y-108769819D02*
X140470000Y-108293628D01*
X140231905Y-108769819D02*
X140231905Y-107769819D01*
X140231905Y-107769819D02*
X140612857Y-107769819D01*
X140612857Y-107769819D02*
X140708095Y-107817438D01*
X140708095Y-107817438D02*
X140755714Y-107865057D01*
X140755714Y-107865057D02*
X140803333Y-107960295D01*
X140803333Y-107960295D02*
X140803333Y-108103152D01*
X140803333Y-108103152D02*
X140755714Y-108198390D01*
X140755714Y-108198390D02*
X140708095Y-108246009D01*
X140708095Y-108246009D02*
X140612857Y-108293628D01*
X140612857Y-108293628D02*
X140231905Y-108293628D01*
X141755714Y-108769819D02*
X141184286Y-108769819D01*
X141470000Y-108769819D02*
X141470000Y-107769819D01*
X141470000Y-107769819D02*
X141374762Y-107912676D01*
X141374762Y-107912676D02*
X141279524Y-108007914D01*
X141279524Y-108007914D02*
X141184286Y-108055533D01*
X133129580Y-89066666D02*
X133177200Y-89114285D01*
X133177200Y-89114285D02*
X133224819Y-89257142D01*
X133224819Y-89257142D02*
X133224819Y-89352380D01*
X133224819Y-89352380D02*
X133177200Y-89495237D01*
X133177200Y-89495237D02*
X133081961Y-89590475D01*
X133081961Y-89590475D02*
X132986723Y-89638094D01*
X132986723Y-89638094D02*
X132796247Y-89685713D01*
X132796247Y-89685713D02*
X132653390Y-89685713D01*
X132653390Y-89685713D02*
X132462914Y-89638094D01*
X132462914Y-89638094D02*
X132367676Y-89590475D01*
X132367676Y-89590475D02*
X132272438Y-89495237D01*
X132272438Y-89495237D02*
X132224819Y-89352380D01*
X132224819Y-89352380D02*
X132224819Y-89257142D01*
X132224819Y-89257142D02*
X132272438Y-89114285D01*
X132272438Y-89114285D02*
X132320057Y-89066666D01*
X133224819Y-88114285D02*
X133224819Y-88685713D01*
X133224819Y-88399999D02*
X132224819Y-88399999D01*
X132224819Y-88399999D02*
X132367676Y-88495237D01*
X132367676Y-88495237D02*
X132462914Y-88590475D01*
X132462914Y-88590475D02*
X132510533Y-88685713D01*
X141600666Y-71527819D02*
X141600666Y-72242104D01*
X141600666Y-72242104D02*
X141553047Y-72384961D01*
X141553047Y-72384961D02*
X141457809Y-72480200D01*
X141457809Y-72480200D02*
X141314952Y-72527819D01*
X141314952Y-72527819D02*
X141219714Y-72527819D01*
X142600666Y-72527819D02*
X142029238Y-72527819D01*
X142314952Y-72527819D02*
X142314952Y-71527819D01*
X142314952Y-71527819D02*
X142219714Y-71670676D01*
X142219714Y-71670676D02*
X142124476Y-71765914D01*
X142124476Y-71765914D02*
X142029238Y-71813533D01*
X164705819Y-86305904D02*
X165515342Y-86305904D01*
X165515342Y-86305904D02*
X165610580Y-86258285D01*
X165610580Y-86258285D02*
X165658200Y-86210666D01*
X165658200Y-86210666D02*
X165705819Y-86115428D01*
X165705819Y-86115428D02*
X165705819Y-85924952D01*
X165705819Y-85924952D02*
X165658200Y-85829714D01*
X165658200Y-85829714D02*
X165610580Y-85782095D01*
X165610580Y-85782095D02*
X165515342Y-85734476D01*
X165515342Y-85734476D02*
X164705819Y-85734476D01*
X164705819Y-85353523D02*
X164705819Y-84734476D01*
X164705819Y-84734476D02*
X165086771Y-85067809D01*
X165086771Y-85067809D02*
X165086771Y-84924952D01*
X165086771Y-84924952D02*
X165134390Y-84829714D01*
X165134390Y-84829714D02*
X165182009Y-84782095D01*
X165182009Y-84782095D02*
X165277247Y-84734476D01*
X165277247Y-84734476D02*
X165515342Y-84734476D01*
X165515342Y-84734476D02*
X165610580Y-84782095D01*
X165610580Y-84782095D02*
X165658200Y-84829714D01*
X165658200Y-84829714D02*
X165705819Y-84924952D01*
X165705819Y-84924952D02*
X165705819Y-85210666D01*
X165705819Y-85210666D02*
X165658200Y-85305904D01*
X165658200Y-85305904D02*
X165610580Y-85353523D01*
D10*
%TO.C,C2*%
X140441000Y-102438252D02*
X140441000Y-101015748D01*
X142261000Y-102438252D02*
X142261000Y-101015748D01*
%TO.C,C3*%
X140441000Y-86260252D02*
X140441000Y-84837748D01*
X142261000Y-86260252D02*
X142261000Y-84837748D01*
%TO.C,U2*%
X143693500Y-96037500D02*
X143966000Y-96037500D01*
X143693500Y-101800000D02*
X143693500Y-96037500D01*
X143693500Y-101800000D02*
X143693500Y-107562500D01*
X143693500Y-107562500D02*
X143966000Y-107562500D01*
X164136000Y-96037500D02*
X164136000Y-94225000D01*
X164408500Y-96037500D02*
X164136000Y-96037500D01*
X164408500Y-101800000D02*
X164408500Y-96037500D01*
X164408500Y-101800000D02*
X164408500Y-107562500D01*
X164408500Y-107562500D02*
X164136000Y-107562500D01*
%TO.C,U4*%
X122575000Y-108112000D02*
X122575000Y-106162000D01*
X122575000Y-108112000D02*
X122575000Y-110062000D01*
X132695000Y-108112000D02*
X132695000Y-104662000D01*
X132695000Y-108112000D02*
X132695000Y-110062000D01*
%TO.C,D1*%
X138685000Y-111768000D02*
X138685000Y-114038000D01*
X138685000Y-114038000D02*
X142570000Y-114038000D01*
X142570000Y-111768000D02*
X138685000Y-111768000D01*
%TO.C,U1*%
X119309000Y-88949000D02*
X119309000Y-79749000D01*
X119309000Y-88949000D02*
X119309000Y-98149000D01*
X131629000Y-88949000D02*
X131629000Y-79749000D01*
X131629000Y-88949000D02*
X131629000Y-98149000D01*
X119959000Y-100014000D02*
X119479000Y-100014000D01*
X119719000Y-99684000D01*
X119959000Y-100014000D01*
G36*
X119959000Y-100014000D02*
G01*
X119479000Y-100014000D01*
X119719000Y-99684000D01*
X119959000Y-100014000D01*
G37*
%TO.C,512K*%
X134509000Y-106535000D02*
X136509000Y-106535000D01*
X134509000Y-109335000D02*
X134509000Y-106535000D01*
X136509000Y-106535000D02*
X136509000Y-109335000D01*
X136509000Y-109335000D02*
X134509000Y-109335000D01*
%TO.C,R1*%
X140726936Y-109247000D02*
X141181064Y-109247000D01*
X140726936Y-110717000D02*
X141181064Y-110717000D01*
%TO.C,C1*%
X133710000Y-89611252D02*
X133710000Y-88188748D01*
X135530000Y-89611252D02*
X135530000Y-88188748D01*
%TO.C,U3*%
X143693500Y-79781500D02*
X143966000Y-79781500D01*
X143693500Y-85544000D02*
X143693500Y-79781500D01*
X143693500Y-85544000D02*
X143693500Y-91306500D01*
X143693500Y-91306500D02*
X143966000Y-91306500D01*
X164136000Y-79781500D02*
X164136000Y-77969000D01*
X164408500Y-79781500D02*
X164136000Y-79781500D01*
X164408500Y-85544000D02*
X164408500Y-79781500D01*
X164408500Y-85544000D02*
X164408500Y-91306500D01*
X164408500Y-91306500D02*
X164136000Y-91306500D01*
%TD*%
M02*
