%TF.GenerationSoftware,KiCad,Pcbnew,8.0.7*%
%TF.CreationDate,2025-01-02T16:49:33-06:00*%
%TF.ProjectId,z88-flash-mod,7a38382d-666c-4617-9368-2d6d6f642e6b,rev?*%
%TF.SameCoordinates,Original*%
%TF.FileFunction,Copper,L3,Inr*%
%TF.FilePolarity,Positive*%
%FSLAX46Y46*%
G04 Gerber Fmt 4.6, Leading zero omitted, Abs format (unit mm)*
G04 Created by KiCad (PCBNEW 8.0.7) date 2025-01-02 16:49:33*
%MOMM*%
%LPD*%
G01*
G04 APERTURE LIST*
%TA.AperFunction,ViaPad*%
%ADD10C,0.800000*%
%TD*%
%TA.AperFunction,Conductor*%
%ADD11C,0.250000*%
%TD*%
G04 APERTURE END LIST*
D10*
%TO.N,GND*%
X123190000Y-106934000D03*
X141351000Y-98298000D03*
X133477000Y-83502000D03*
X120469000Y-77824000D03*
X129540000Y-112141000D03*
X130175000Y-106971000D03*
X144094000Y-71699000D03*
%TO.N,/D2*%
X145669000Y-80899000D03*
X127219000Y-80949000D03*
X145796000Y-97409000D03*
%TO.N,/D1*%
X147066000Y-98298000D03*
X128219000Y-80949000D03*
X147066000Y-80899000D03*
%TO.N,/A14*%
X161036000Y-80899000D03*
X161036000Y-99822000D03*
X142875000Y-73025000D03*
X120719000Y-96449000D03*
%TO.N,/D0*%
X148344000Y-80899000D03*
X129219000Y-80949000D03*
X148336000Y-97409000D03*
%TO.N,/A13*%
X158496000Y-89916000D03*
X158496000Y-106426000D03*
X136594000Y-73025000D03*
X120969000Y-101699000D03*
%TO.N,/A0*%
X149606000Y-80899000D03*
X149606000Y-98298000D03*
X122555000Y-77470000D03*
%TO.N,/A8*%
X157226000Y-89027000D03*
X135344000Y-73025000D03*
X157226000Y-99748000D03*
X157226000Y-105410000D03*
X127719003Y-96449000D03*
%TO.N,/A1*%
X150876000Y-80899000D03*
X131719000Y-77824000D03*
X150876000Y-97409000D03*
%TO.N,/A9*%
X123969000Y-101699000D03*
X155956000Y-89916000D03*
X155956000Y-106426000D03*
X134094000Y-73025000D03*
%TO.N,/A2*%
X152146000Y-98298000D03*
X152146000Y-81824000D03*
X132219000Y-96449000D03*
%TO.N,/A11*%
X132844000Y-73025000D03*
X122469000Y-101699000D03*
X154686000Y-89027000D03*
X154686000Y-106426000D03*
%TO.N,/A3*%
X153416000Y-80899000D03*
X153416000Y-97409000D03*
X131469000Y-95449000D03*
%TO.N,/A4*%
X130719000Y-96449000D03*
X154686000Y-98298000D03*
X154686000Y-81824000D03*
%TO.N,/A10*%
X152146000Y-106426000D03*
X152146000Y-89027000D03*
X122719000Y-96424000D03*
X129094000Y-73025000D03*
%TO.N,/A5*%
X155956000Y-80899000D03*
X129969000Y-95449000D03*
X155956000Y-97409000D03*
%TO.N,/A6*%
X157226000Y-98298000D03*
X157226000Y-81788000D03*
X129219000Y-96449000D03*
%TO.N,/D7*%
X126594000Y-73025000D03*
X149606000Y-106426000D03*
X121719000Y-80949000D03*
X149606000Y-89027000D03*
%TO.N,/A7*%
X128469000Y-95449000D03*
X158496000Y-80899000D03*
X158496000Y-97409000D03*
%TO.N,/D6*%
X148336000Y-89916000D03*
X122719000Y-80949000D03*
X125344000Y-73025000D03*
X148336000Y-106426000D03*
%TO.N,/A12*%
X159126000Y-105410000D03*
X159766000Y-98298000D03*
X159766000Y-80899000D03*
X121719000Y-100699000D03*
%TO.N,/D5*%
X147066000Y-106426000D03*
X123744305Y-81974305D03*
X147066000Y-89027000D03*
%TO.N,/A15*%
X120219000Y-100699000D03*
X162306000Y-89027000D03*
X162814000Y-73025000D03*
X162306000Y-106426000D03*
%TO.N,/D4*%
X145796000Y-106426000D03*
X124744305Y-80974305D03*
X145796000Y-89916000D03*
%TO.N,/A16*%
X119469000Y-101699000D03*
X162306000Y-80899000D03*
X162523000Y-99785000D03*
%TO.N,/D3*%
X144526000Y-89027000D03*
X126219000Y-80949000D03*
X144526000Y-106426000D03*
%TO.N,/WEL*%
X159766000Y-106426000D03*
X125222000Y-100711000D03*
X159766000Y-89027000D03*
X137844000Y-73025000D03*
%TO.N,/ROE*%
X130094000Y-81949000D03*
X153416000Y-89916000D03*
X153416000Y-106426000D03*
%TO.N,/A17*%
X161036000Y-89916000D03*
X119719000Y-80949000D03*
X161036000Y-106426000D03*
%TO.N,/A19*%
X118545892Y-88591108D03*
X126219000Y-96449000D03*
%TO.N,/A18*%
X163576000Y-81788000D03*
X126969006Y-95449000D03*
X163576000Y-97409000D03*
X119253000Y-87884000D03*
%TO.N,/~{SE1}*%
X130719000Y-76926000D03*
X128719000Y-76949000D03*
X133604000Y-104424000D03*
%TO.N,Net-(JP1-A)*%
X136594000Y-105881000D03*
X150876000Y-106426000D03*
%TO.N,Net-(U3-CE#)*%
X127344000Y-103699000D03*
X151511000Y-104394000D03*
X150876000Y-89916000D03*
%TD*%
D11*
%TO.N,/D2*%
X145669000Y-89017695D02*
X145071000Y-89615695D01*
X145161000Y-90306305D02*
X145161000Y-96393000D01*
X145071000Y-89615695D02*
X145071000Y-90216305D01*
X145796000Y-97028000D02*
X145796000Y-97409000D01*
X145161000Y-96393000D02*
X145796000Y-97028000D01*
X145071000Y-90216305D02*
X145161000Y-90306305D01*
X145669000Y-80899000D02*
X145669000Y-89017695D01*
%TO.N,/D1*%
X146775000Y-88302000D02*
X147066000Y-88011000D01*
X146341000Y-88726695D02*
X146765695Y-88302000D01*
X147066000Y-88011000D02*
X147066000Y-80899000D01*
X146521000Y-96472299D02*
X146521000Y-89507305D01*
X146341000Y-89327305D02*
X146341000Y-88726695D01*
X146521000Y-89507305D02*
X146341000Y-89327305D01*
X146765695Y-88302000D02*
X146775000Y-88302000D01*
X147066000Y-97017299D02*
X146521000Y-96472299D01*
X147066000Y-98298000D02*
X147066000Y-97017299D01*
%TO.N,/A14*%
X160311000Y-80174000D02*
X161036000Y-80899000D01*
X148627000Y-80174000D02*
X160311000Y-80174000D01*
X160401000Y-90306305D02*
X160311000Y-90216305D01*
X160401000Y-96139000D02*
X160401000Y-90306305D01*
X142875000Y-74422000D02*
X148627000Y-80174000D01*
X142875000Y-73025000D02*
X142875000Y-74422000D01*
X160311000Y-90216305D02*
X160311000Y-89615695D01*
X161036000Y-99822000D02*
X161036000Y-96774000D01*
X161036000Y-88890695D02*
X161036000Y-80899000D01*
X161036000Y-96774000D02*
X160401000Y-96139000D01*
X160311000Y-89615695D02*
X161036000Y-88890695D01*
%TO.N,/D0*%
X147611000Y-89615695D02*
X147611000Y-90216305D01*
X147611000Y-90216305D02*
X147701000Y-90306305D01*
X147701000Y-90306305D02*
X147701000Y-96379506D01*
X147701000Y-96379506D02*
X148336000Y-97014506D01*
X148336000Y-88890695D02*
X147611000Y-89615695D01*
X148344000Y-80899000D02*
X148336000Y-80907000D01*
X148336000Y-97014506D02*
X148336000Y-97409000D01*
X148336000Y-80907000D02*
X148336000Y-88890695D01*
%TO.N,/A13*%
X158496000Y-106426000D02*
X158401000Y-106331000D01*
X159221000Y-97709305D02*
X159221000Y-96957854D01*
X159221000Y-96957854D02*
X158496000Y-96232854D01*
X158401000Y-98529305D02*
X159221000Y-97709305D01*
X158496000Y-96232854D02*
X158496000Y-89916000D01*
X158401000Y-106331000D02*
X158401000Y-98529305D01*
%TO.N,/A0*%
X148881000Y-89327305D02*
X149061000Y-89507305D01*
X148881000Y-88726695D02*
X148881000Y-89327305D01*
X149606000Y-88001695D02*
X148881000Y-88726695D01*
X149606000Y-97011714D02*
X149606000Y-98298000D01*
X149061000Y-90216305D02*
X148971000Y-90306305D01*
X149061000Y-89507305D02*
X149061000Y-90216305D01*
X149606000Y-80899000D02*
X149606000Y-88001695D01*
X148971000Y-90306305D02*
X148971000Y-96376714D01*
X148971000Y-96376714D02*
X149606000Y-97011714D01*
%TO.N,/A8*%
X157226000Y-105410000D02*
X157226000Y-99748000D01*
X157951000Y-98598305D02*
X157951000Y-97938847D01*
X157951000Y-97938847D02*
X157676000Y-97663847D01*
X157676000Y-97663847D02*
X157676000Y-96696635D01*
X157226000Y-99323305D02*
X157951000Y-98598305D01*
X157226000Y-99748000D02*
X157226000Y-99323305D01*
X157226000Y-96246635D02*
X157226000Y-89027000D01*
X157676000Y-96696635D02*
X157226000Y-96246635D01*
%TO.N,/A1*%
X150151000Y-90216305D02*
X150241000Y-90306305D01*
X150331000Y-88726695D02*
X150331000Y-89327305D01*
X150506000Y-96638922D02*
X150506000Y-97039000D01*
X150331000Y-89327305D02*
X150151000Y-89507305D01*
X150876000Y-88181695D02*
X150331000Y-88726695D01*
X150241000Y-90306305D02*
X150241000Y-96373922D01*
X150506000Y-97039000D02*
X150876000Y-97409000D01*
X150151000Y-89507305D02*
X150151000Y-90216305D01*
X150241000Y-96373922D02*
X150506000Y-96638922D01*
X150876000Y-80899000D02*
X150876000Y-88181695D01*
%TO.N,/A9*%
X155956000Y-106426000D02*
X155956000Y-98434305D01*
X155956000Y-96249427D02*
X155956000Y-89916000D01*
X156681000Y-96974427D02*
X155956000Y-96249427D01*
X156681000Y-97709305D02*
X156681000Y-96974427D01*
X155956000Y-98434305D02*
X156681000Y-97709305D01*
%TO.N,/A2*%
X151511000Y-90306305D02*
X151511000Y-96371130D01*
X151601000Y-89507305D02*
X151601000Y-90216305D01*
X152146000Y-97006130D02*
X152146000Y-98298000D01*
X151421000Y-88726695D02*
X151421000Y-89327305D01*
X152146000Y-88011000D02*
X151855000Y-88302000D01*
X152146000Y-81824000D02*
X152146000Y-88011000D01*
X151845695Y-88302000D02*
X151421000Y-88726695D01*
X151511000Y-96371130D02*
X152146000Y-97006130D01*
X151601000Y-90216305D02*
X151511000Y-90306305D01*
X151855000Y-88302000D02*
X151845695Y-88302000D01*
X151421000Y-89327305D02*
X151601000Y-89507305D01*
%TO.N,/A11*%
X154686000Y-106426000D02*
X154686000Y-106299000D01*
X154686000Y-96252219D02*
X154686000Y-89027000D01*
X154686000Y-106299000D02*
X155411000Y-105574000D01*
X155136000Y-97614305D02*
X155136000Y-96702219D01*
X155411000Y-97889305D02*
X155136000Y-97614305D01*
X155411000Y-105574000D02*
X155411000Y-97889305D01*
X155136000Y-96702219D02*
X154686000Y-96252219D01*
%TO.N,/A3*%
X152691000Y-90216305D02*
X152781000Y-90306305D01*
X152781000Y-90306305D02*
X152781000Y-96331594D01*
X153416000Y-96966594D02*
X153416000Y-97409000D01*
X153416000Y-88890695D02*
X152691000Y-89615695D01*
X152691000Y-89615695D02*
X152691000Y-90216305D01*
X152781000Y-96331594D02*
X153416000Y-96966594D01*
X153416000Y-80899000D02*
X153416000Y-88890695D01*
%TO.N,/A4*%
X154686000Y-88001695D02*
X153961000Y-88726695D01*
X154051000Y-96328802D02*
X154686000Y-96963802D01*
X154686000Y-96963802D02*
X154686000Y-98298000D01*
X154686000Y-81824000D02*
X154686000Y-88001695D01*
X153961000Y-89327305D02*
X154141000Y-89507305D01*
X153961000Y-88726695D02*
X153961000Y-89327305D01*
X154051000Y-90306305D02*
X154051000Y-96328802D01*
X154141000Y-89507305D02*
X154141000Y-90216305D01*
X154141000Y-90216305D02*
X154051000Y-90306305D01*
%TO.N,/A10*%
X152146000Y-106426000D02*
X153035000Y-105537000D01*
X127044000Y-75749000D02*
X129094000Y-73699000D01*
X122719000Y-85699610D02*
X125469305Y-82949305D01*
X152146000Y-96332990D02*
X152146000Y-89027000D01*
X153035000Y-98053305D02*
X152653302Y-97671607D01*
X153035000Y-105537000D02*
X153035000Y-98053305D01*
X125469305Y-82949305D02*
X125469305Y-79860396D01*
X122719000Y-96424000D02*
X122719000Y-85699610D01*
X129094000Y-73699000D02*
X129094000Y-73025000D01*
X152653302Y-96840292D02*
X152146000Y-96332990D01*
X127044000Y-78285701D02*
X127044000Y-75749000D01*
X125469305Y-79860396D02*
X127044000Y-78285701D01*
X152653302Y-97671607D02*
X152653302Y-96840292D01*
%TO.N,/A5*%
X155231000Y-96160823D02*
X155956000Y-96885823D01*
X155956000Y-80899000D02*
X155956000Y-88890695D01*
X155956000Y-88890695D02*
X155231000Y-89615695D01*
X155231000Y-89615695D02*
X155231000Y-96160823D01*
X155956000Y-96885823D02*
X155956000Y-97409000D01*
%TO.N,/A6*%
X156681000Y-89507305D02*
X156681000Y-90216305D01*
X156591000Y-90306305D02*
X156591000Y-96248031D01*
X157226000Y-96883031D02*
X157226000Y-98298000D01*
X156591000Y-96248031D02*
X157226000Y-96883031D01*
X157226000Y-81788000D02*
X157226000Y-88001695D01*
X156681000Y-90216305D02*
X156591000Y-90306305D01*
X157226000Y-88001695D02*
X156501000Y-88726695D01*
X156501000Y-88726695D02*
X156501000Y-89327305D01*
X156501000Y-89327305D02*
X156681000Y-89507305D01*
%TO.N,/D7*%
X123019305Y-81674000D02*
X122187000Y-81674000D01*
X150331000Y-105701000D02*
X150331000Y-97997695D01*
X122187000Y-81674000D02*
X121719000Y-81206000D01*
X150056000Y-96825318D02*
X149606000Y-96375318D01*
X149606000Y-106426000D02*
X150331000Y-105701000D01*
X126594000Y-73025000D02*
X126594000Y-78099305D01*
X149606000Y-96375318D02*
X149606000Y-89027000D01*
X126594000Y-78099305D02*
X123019305Y-81674000D01*
X150056000Y-97722695D02*
X150056000Y-96825318D01*
X121719000Y-81206000D02*
X121719000Y-80949000D01*
X150331000Y-97997695D02*
X150056000Y-97722695D01*
%TO.N,/A7*%
X157771000Y-90216305D02*
X157771000Y-89615695D01*
X157861000Y-96234250D02*
X157861000Y-90306305D01*
X158496000Y-88890695D02*
X158496000Y-80899000D01*
X158496000Y-96869250D02*
X157861000Y-96234250D01*
X157861000Y-90306305D02*
X157771000Y-90216305D01*
X158496000Y-97409000D02*
X158496000Y-96869250D01*
X157771000Y-89615695D02*
X158496000Y-88890695D01*
%TO.N,/D6*%
X148336000Y-106426000D02*
X148336000Y-98434305D01*
X125344000Y-73025000D02*
X125344000Y-78324000D01*
X148336000Y-96378110D02*
X148336000Y-89916000D01*
X149061000Y-97103110D02*
X148336000Y-96378110D01*
X125344000Y-78324000D02*
X122719000Y-80949000D01*
X149061000Y-97709305D02*
X149061000Y-97103110D01*
X148336000Y-98434305D02*
X149061000Y-97709305D01*
%TO.N,/A12*%
X159766000Y-96866458D02*
X159131000Y-96231458D01*
X159221000Y-90216305D02*
X159221000Y-89615695D01*
X159766000Y-88001695D02*
X159766000Y-80899000D01*
X159041000Y-89435695D02*
X159041000Y-88726695D01*
X159131000Y-98933000D02*
X159131000Y-105405000D01*
X159131000Y-90306305D02*
X159221000Y-90216305D01*
X159221000Y-89615695D02*
X159041000Y-89435695D01*
X159766000Y-98298000D02*
X159131000Y-98933000D01*
X159131000Y-96231458D02*
X159131000Y-90306305D01*
X159041000Y-88726695D02*
X159766000Y-88001695D01*
X159766000Y-98298000D02*
X159766000Y-96866458D01*
X159131000Y-105405000D02*
X159126000Y-105410000D01*
%TO.N,/D5*%
X147066000Y-106426000D02*
X147066000Y-99581958D01*
X147066000Y-96380903D02*
X147066000Y-89027000D01*
X147574000Y-97672305D02*
X147574000Y-96888903D01*
X147828000Y-97926305D02*
X147574000Y-97672305D01*
X147828000Y-98819958D02*
X147828000Y-97926305D01*
X147574000Y-96888903D02*
X147066000Y-96380903D01*
X147066000Y-99581958D02*
X147828000Y-98819958D01*
%TO.N,/A15*%
X162306000Y-81924305D02*
X162306000Y-89027000D01*
X162756000Y-96491000D02*
X162306000Y-96041000D01*
X163031000Y-80598695D02*
X163031000Y-81199305D01*
X163322000Y-98425000D02*
X162756000Y-97859000D01*
X162814000Y-73025000D02*
X162941000Y-73152000D01*
X162941000Y-73152000D02*
X162941000Y-80508695D01*
X162306000Y-96041000D02*
X162306000Y-89027000D01*
X162306000Y-106426000D02*
X163322000Y-105410000D01*
X162941000Y-80508695D02*
X163031000Y-80598695D01*
X163322000Y-105410000D02*
X163322000Y-98425000D01*
X163031000Y-81199305D02*
X162306000Y-81924305D01*
X162756000Y-97859000D02*
X162756000Y-96491000D01*
%TO.N,/D4*%
X146557302Y-97673003D02*
X146557302Y-97144997D01*
X145796000Y-96383695D02*
X145796000Y-89916000D01*
X145796000Y-98434305D02*
X146557302Y-97673003D01*
X146557302Y-97144997D02*
X145796000Y-96383695D01*
X145796000Y-106426000D02*
X145796000Y-98434305D01*
%TO.N,/A16*%
X162306000Y-99568000D02*
X162306000Y-96677396D01*
X161671000Y-90306305D02*
X161761000Y-90216305D01*
X161761000Y-90216305D02*
X161761000Y-89507305D01*
X161581000Y-89327305D02*
X161581000Y-81624000D01*
X162523000Y-99785000D02*
X162306000Y-99568000D01*
X162306000Y-96677396D02*
X161671000Y-96042396D01*
X161581000Y-81624000D02*
X162306000Y-80899000D01*
X161761000Y-89507305D02*
X161581000Y-89327305D01*
X161671000Y-96042396D02*
X161671000Y-90306305D01*
%TO.N,/D3*%
X144526000Y-106426000D02*
X144526000Y-89027000D01*
%TO.N,/WEL*%
X160147000Y-98942305D02*
X160491000Y-98598305D01*
X160147000Y-106045000D02*
X160147000Y-98942305D01*
X159766000Y-96230062D02*
X159766000Y-89027000D01*
X159766000Y-106426000D02*
X160147000Y-106045000D01*
X160491000Y-98598305D02*
X160491000Y-96955062D01*
X160491000Y-96955062D02*
X159766000Y-96230062D01*
%TO.N,/ROE*%
X153416000Y-96330198D02*
X153416000Y-89916000D01*
X153716305Y-106125695D02*
X153716305Y-98134000D01*
X153716305Y-98134000D02*
X154141000Y-97709305D01*
X154141000Y-97709305D02*
X154141000Y-97055198D01*
X153416000Y-106426000D02*
X153716305Y-106125695D01*
X154141000Y-97055198D02*
X153416000Y-96330198D01*
%TO.N,/A17*%
X161036000Y-106426000D02*
X161036000Y-100847305D01*
X161036000Y-100847305D02*
X161798000Y-100085305D01*
X161036000Y-96137604D02*
X161036000Y-89916000D01*
X161798000Y-96899604D02*
X161036000Y-96137604D01*
X161798000Y-100085305D02*
X161798000Y-96899604D01*
%TO.N,/A18*%
X163576000Y-97409000D02*
X163576000Y-81661000D01*
%TO.N,/~{SE1}*%
X133594000Y-104414000D02*
X133594000Y-85024305D01*
X133604000Y-104424000D02*
X133594000Y-104414000D01*
X130819000Y-77026000D02*
X130719000Y-76926000D01*
X128742000Y-76926000D02*
X130719000Y-76926000D01*
X128719000Y-76949000D02*
X128742000Y-76926000D01*
X133594000Y-85024305D02*
X130819000Y-82249305D01*
X130819000Y-82249305D02*
X130819000Y-77026000D01*
%TO.N,Net-(U3-CE#)*%
X151511000Y-104394000D02*
X151067000Y-103950000D01*
X151601000Y-97097526D02*
X150876000Y-96372526D01*
X151511000Y-104339000D02*
X151094000Y-103922000D01*
X151511000Y-104394000D02*
X151511000Y-104339000D01*
X151067000Y-103950000D02*
X151067000Y-98351695D01*
X151067000Y-98351695D02*
X151601000Y-97817695D01*
X150876000Y-96372526D02*
X150876000Y-89916000D01*
X151601000Y-97817695D02*
X151601000Y-97097526D01*
%TD*%
M02*
