%TF.GenerationSoftware,KiCad,Pcbnew,8.0.7*%
%TF.CreationDate,2025-01-02T16:49:33-06:00*%
%TF.ProjectId,z88-flash-mod,7a38382d-666c-4617-9368-2d6d6f642e6b,rev?*%
%TF.SameCoordinates,Original*%
%TF.FileFunction,Copper,L1,Top*%
%TF.FilePolarity,Positive*%
%FSLAX46Y46*%
G04 Gerber Fmt 4.6, Leading zero omitted, Abs format (unit mm)*
G04 Created by KiCad (PCBNEW 8.0.7) date 2025-01-02 16:49:33*
%MOMM*%
%LPD*%
G01*
G04 APERTURE LIST*
G04 Aperture macros list*
%AMRoundRect*
0 Rectangle with rounded corners*
0 $1 Rounding radius*
0 $2 $3 $4 $5 $6 $7 $8 $9 X,Y pos of 4 corners*
0 Add a 4 corners polygon primitive as box body*
4,1,4,$2,$3,$4,$5,$6,$7,$8,$9,$2,$3,0*
0 Add four circle primitives for the rounded corners*
1,1,$1+$1,$2,$3*
1,1,$1+$1,$4,$5*
1,1,$1+$1,$6,$7*
1,1,$1+$1,$8,$9*
0 Add four rect primitives between the rounded corners*
20,1,$1+$1,$2,$3,$4,$5,0*
20,1,$1+$1,$4,$5,$6,$7,0*
20,1,$1+$1,$6,$7,$8,$9,0*
20,1,$1+$1,$8,$9,$2,$3,0*%
G04 Aperture macros list end*
%TA.AperFunction,Conductor*%
%ADD10C,0.000000*%
%TD*%
%TA.AperFunction,SMDPad,CuDef*%
%ADD11RoundRect,0.250000X0.650000X-0.325000X0.650000X0.325000X-0.650000X0.325000X-0.650000X-0.325000X0*%
%TD*%
%TA.AperFunction,SMDPad,CuDef*%
%ADD12RoundRect,0.150000X-0.150000X0.875000X-0.150000X-0.875000X0.150000X-0.875000X0.150000X0.875000X0*%
%TD*%
%TA.AperFunction,SMDPad,CuDef*%
%ADD13RoundRect,0.150000X-0.150000X0.725000X-0.150000X-0.725000X0.150000X-0.725000X0.150000X0.725000X0*%
%TD*%
%TA.AperFunction,SMDPad,CuDef*%
%ADD14RoundRect,0.250000X-0.375000X-0.625000X0.375000X-0.625000X0.375000X0.625000X-0.375000X0.625000X0*%
%TD*%
%TA.AperFunction,SMDPad,CuDef*%
%ADD15RoundRect,0.075000X0.075000X-0.712500X0.075000X0.712500X-0.075000X0.712500X-0.075000X-0.712500X0*%
%TD*%
%TA.AperFunction,SMDPad,CuDef*%
%ADD16R,1.500000X1.000000*%
%TD*%
%TA.AperFunction,SMDPad,CuDef*%
%ADD17RoundRect,0.250000X-0.350000X-0.450000X0.350000X-0.450000X0.350000X0.450000X-0.350000X0.450000X0*%
%TD*%
%TA.AperFunction,ConnectorPad*%
%ADD18R,0.750000X5.000000*%
%TD*%
%TA.AperFunction,ConnectorPad*%
%ADD19R,0.750000X2.000000*%
%TD*%
%TA.AperFunction,ConnectorPad*%
%ADD20R,0.750000X3.000000*%
%TD*%
%TA.AperFunction,ConnectorPad*%
%ADD21R,0.750000X4.000000*%
%TD*%
%TA.AperFunction,ConnectorPad*%
%ADD22R,0.750000X7.500000*%
%TD*%
%TA.AperFunction,ViaPad*%
%ADD23C,0.800000*%
%TD*%
%TA.AperFunction,Conductor*%
%ADD24C,0.250000*%
%TD*%
%TA.AperFunction,Conductor*%
%ADD25C,0.750000*%
%TD*%
%TA.AperFunction,Conductor*%
%ADD26C,0.500000*%
%TD*%
G04 APERTURE END LIST*
D10*
%TA.AperFunction,Conductor*%
%TO.N,VCC*%
G36*
X141969000Y-70699000D02*
G01*
X140344000Y-72324000D01*
X138719000Y-70699000D01*
X138719000Y-66699000D01*
X141969000Y-66699000D01*
X141969000Y-70699000D01*
G37*
%TD.AperFunction*%
%TA.AperFunction,Conductor*%
%TO.N,GND*%
G36*
X146969000Y-68199000D02*
G01*
X145719000Y-68199000D01*
X145719000Y-70699000D01*
X143719000Y-72699000D01*
X143719000Y-63199000D01*
X146969000Y-63199000D01*
X146969000Y-68199000D01*
G37*
%TD.AperFunction*%
%TD*%
D11*
%TO.P,C2,1*%
%TO.N,VCC*%
X141351000Y-103202000D03*
%TO.P,C2,2*%
%TO.N,GND*%
X141351000Y-100252000D03*
%TD*%
%TO.P,C3,1*%
%TO.N,VCC*%
X141351000Y-87024000D03*
%TO.P,C3,2*%
%TO.N,GND*%
X141351000Y-84074000D03*
%TD*%
D12*
%TO.P,U2,1,A18*%
%TO.N,/A18*%
X163576000Y-95250000D03*
%TO.P,U2,2,A16*%
%TO.N,/A16*%
X162306000Y-95250000D03*
%TO.P,U2,3,A14*%
%TO.N,/A14*%
X161036000Y-95250000D03*
%TO.P,U2,4,A12*%
%TO.N,/A12*%
X159766000Y-95250000D03*
%TO.P,U2,5,A7*%
%TO.N,/A7*%
X158496000Y-95250000D03*
%TO.P,U2,6,A6*%
%TO.N,/A6*%
X157226000Y-95250000D03*
%TO.P,U2,7,A5*%
%TO.N,/A5*%
X155956000Y-95250000D03*
%TO.P,U2,8,A4*%
%TO.N,/A4*%
X154686000Y-95250000D03*
%TO.P,U2,9,A3*%
%TO.N,/A3*%
X153416000Y-95250000D03*
%TO.P,U2,10,A2*%
%TO.N,/A2*%
X152146000Y-95250000D03*
%TO.P,U2,11,A1*%
%TO.N,/A1*%
X150876000Y-95250000D03*
%TO.P,U2,12,A0*%
%TO.N,/A0*%
X149606000Y-95250000D03*
%TO.P,U2,13,DQ0*%
%TO.N,/D0*%
X148336000Y-95250000D03*
%TO.P,U2,14,DQ1*%
%TO.N,/D1*%
X147066000Y-95250000D03*
%TO.P,U2,15,DQ2*%
%TO.N,/D2*%
X145796000Y-95250000D03*
%TO.P,U2,16,VSS*%
%TO.N,GND*%
X144526000Y-95250000D03*
%TO.P,U2,17,DQ3*%
%TO.N,/D3*%
X144526000Y-108350000D03*
%TO.P,U2,18,DQ4*%
%TO.N,/D4*%
X145796000Y-108350000D03*
%TO.P,U2,19,DQ5*%
%TO.N,/D5*%
X147066000Y-108350000D03*
%TO.P,U2,20,DQ6*%
%TO.N,/D6*%
X148336000Y-108350000D03*
%TO.P,U2,21,DQ7*%
%TO.N,/D7*%
X149606000Y-108350000D03*
%TO.P,U2,22,CE#*%
%TO.N,Net-(JP1-A)*%
X150876000Y-108350000D03*
%TO.P,U2,23,A10*%
%TO.N,/A10*%
X152146000Y-108350000D03*
%TO.P,U2,24,OE#*%
%TO.N,/ROE*%
X153416000Y-108350000D03*
%TO.P,U2,25,A11*%
%TO.N,/A11*%
X154686000Y-108350000D03*
%TO.P,U2,26,A9*%
%TO.N,/A9*%
X155956000Y-108350000D03*
%TO.P,U2,27,A8*%
%TO.N,/A8*%
X157226000Y-108350000D03*
%TO.P,U2,28,A13*%
%TO.N,/A13*%
X158496000Y-108350000D03*
%TO.P,U2,29,WE#*%
%TO.N,/WEL*%
X159766000Y-108350000D03*
%TO.P,U2,30,A17*%
%TO.N,/A17*%
X161036000Y-108350000D03*
%TO.P,U2,31,A15*%
%TO.N,/A15*%
X162306000Y-108350000D03*
%TO.P,U2,32,VCC*%
%TO.N,VCC*%
X163576000Y-108350000D03*
%TD*%
D13*
%TO.P,U4,1,E*%
%TO.N,/~{SE1}*%
X132080000Y-105537000D03*
%TO.P,U4,2,A0*%
%TO.N,/A19*%
X130810000Y-105537000D03*
%TO.P,U4,3,A1*%
%TO.N,GND*%
X129540000Y-105537000D03*
%TO.P,U4,4,O0*%
%TO.N,Net-(JP1-A)*%
X128270000Y-105537000D03*
%TO.P,U4,5,O1*%
%TO.N,Net-(U3-CE#)*%
X127000000Y-105537000D03*
%TO.P,U4,6,O2*%
%TO.N,unconnected-(U4A-O2-Pad6)*%
X125730000Y-105537000D03*
%TO.P,U4,7,O3*%
%TO.N,unconnected-(U4A-O3-Pad7)*%
X124460000Y-105537000D03*
%TO.P,U4,8,GND*%
%TO.N,GND*%
X123190000Y-105537000D03*
%TO.P,U4,9,O3*%
%TO.N,unconnected-(U4B-O3-Pad9)*%
X123190000Y-110687000D03*
%TO.P,U4,10,O2*%
%TO.N,unconnected-(U4B-O2-Pad10)*%
X124460000Y-110687000D03*
%TO.P,U4,11,O1*%
%TO.N,unconnected-(U4B-O1-Pad11)*%
X125730000Y-110687000D03*
%TO.P,U4,12,O0*%
%TO.N,unconnected-(U4B-O0-Pad12)*%
X127000000Y-110687000D03*
%TO.P,U4,13,A1*%
%TO.N,GND*%
X128270000Y-110687000D03*
%TO.P,U4,14,A0*%
X129540000Y-110687000D03*
%TO.P,U4,15,E*%
X130810000Y-110687000D03*
%TO.P,U4,16,VCC*%
%TO.N,VCC*%
X132080000Y-110687000D03*
%TD*%
D14*
%TO.P,D1,1,K*%
%TO.N,Net-(D1-K)*%
X139570000Y-112903000D03*
%TO.P,D1,2,A*%
%TO.N,Net-(D1-A)*%
X142370000Y-112903000D03*
%TD*%
D15*
%TO.P,U1,1,A15*%
%TO.N,/A16*%
X119719000Y-98636500D03*
%TO.P,U1,2,A14*%
%TO.N,/A15*%
X120219000Y-98636500D03*
%TO.P,U1,3,A13*%
%TO.N,/A14*%
X120719000Y-98636500D03*
%TO.P,U1,4,A12*%
%TO.N,/A13*%
X121219000Y-98636500D03*
%TO.P,U1,5,A11*%
%TO.N,/A12*%
X121719000Y-98636500D03*
%TO.P,U1,6,A10*%
%TO.N,/A11*%
X122219000Y-98636500D03*
%TO.P,U1,7,A9*%
%TO.N,/A10*%
X122719000Y-98636500D03*
%TO.P,U1,8,A8*%
%TO.N,/A9*%
X123219000Y-98636500D03*
%TO.P,U1,9*%
%TO.N,N/C*%
X123719000Y-98636500D03*
%TO.P,U1,10*%
X124219000Y-98636500D03*
%TO.P,U1,11,~{WE}*%
%TO.N,/WEL*%
X124719000Y-98636500D03*
%TO.P,U1,12,~{RESET}*%
%TO.N,VCC*%
X125219000Y-98636500D03*
%TO.P,U1,13*%
%TO.N,N/C*%
X125719000Y-98636500D03*
%TO.P,U1,14*%
X126219000Y-98636500D03*
%TO.P,U1,15,RY/~{BY}*%
%TO.N,Net-(D1-K)*%
X126719000Y-98636500D03*
%TO.P,U1,16,A18*%
%TO.N,/A19*%
X127219000Y-98636500D03*
%TO.P,U1,17,A17*%
%TO.N,/A18*%
X127719000Y-98636500D03*
%TO.P,U1,18,A7*%
%TO.N,/A8*%
X128219000Y-98636500D03*
%TO.P,U1,19,A6*%
%TO.N,/A7*%
X128719000Y-98636500D03*
%TO.P,U1,20,A5*%
%TO.N,/A6*%
X129219000Y-98636500D03*
%TO.P,U1,21,A4*%
%TO.N,/A5*%
X129719000Y-98636500D03*
%TO.P,U1,22,A3*%
%TO.N,/A4*%
X130219000Y-98636500D03*
%TO.P,U1,23,A2*%
%TO.N,/A3*%
X130719000Y-98636500D03*
%TO.P,U1,24,A1*%
%TO.N,/A2*%
X131219000Y-98636500D03*
%TO.P,U1,25,A0*%
%TO.N,/A1*%
X131219000Y-79261500D03*
%TO.P,U1,26,~{CE}*%
%TO.N,/~{SE1}*%
X130719000Y-79261500D03*
%TO.P,U1,27,VSS*%
%TO.N,GND*%
X130219000Y-79261500D03*
%TO.P,U1,28,~{OE}*%
%TO.N,/ROE*%
X129719000Y-79261500D03*
%TO.P,U1,29,DQ0*%
%TO.N,/D0*%
X129219000Y-79261500D03*
%TO.P,U1,30,DQ8*%
%TO.N,unconnected-(U1-DQ8-Pad30)*%
X128719000Y-79261500D03*
%TO.P,U1,31,DQ1*%
%TO.N,/D1*%
X128219000Y-79261500D03*
%TO.P,U1,32,DQ9*%
%TO.N,unconnected-(U1-DQ9-Pad32)*%
X127719000Y-79261500D03*
%TO.P,U1,33,DQ2*%
%TO.N,/D2*%
X127219000Y-79261500D03*
%TO.P,U1,34,DQ10*%
%TO.N,unconnected-(U1-DQ10-Pad34)*%
X126719000Y-79261500D03*
%TO.P,U1,35,DQ3*%
%TO.N,/D3*%
X126219000Y-79261500D03*
%TO.P,U1,36,DQ11*%
%TO.N,unconnected-(U1-DQ11-Pad36)*%
X125719000Y-79261500D03*
%TO.P,U1,37,VCC*%
%TO.N,VCC*%
X125219000Y-79261500D03*
%TO.P,U1,38,DQ4*%
%TO.N,/D4*%
X124719000Y-79261500D03*
%TO.P,U1,39,DQ12*%
%TO.N,unconnected-(U1-DQ12-Pad39)*%
X124219000Y-79261500D03*
%TO.P,U1,40,DQ5*%
%TO.N,/D5*%
X123719000Y-79261500D03*
%TO.P,U1,41,DQ13*%
%TO.N,unconnected-(U1-DQ13-Pad41)*%
X123219000Y-79261500D03*
%TO.P,U1,42,DQ6*%
%TO.N,/D6*%
X122719000Y-79261500D03*
%TO.P,U1,43,DQ14*%
%TO.N,unconnected-(U1-DQ14-Pad43)*%
X122219000Y-79261500D03*
%TO.P,U1,44,DQ7*%
%TO.N,/D7*%
X121719000Y-79261500D03*
%TO.P,U1,45,DQ15/A-1*%
%TO.N,/A0*%
X121219000Y-79261500D03*
%TO.P,U1,46,VSS*%
%TO.N,GND*%
X120719000Y-79261500D03*
%TO.P,U1,47,~{BYTE}*%
X120219000Y-79261500D03*
%TO.P,U1,48,A16*%
%TO.N,/A17*%
X119719000Y-79261500D03*
%TD*%
D16*
%TO.P,512K,1,A*%
%TO.N,Net-(JP1-A)*%
X135509000Y-108585000D03*
%TO.P,512K,2,B*%
%TO.N,/~{SE1}*%
X135509000Y-107285000D03*
%TD*%
D17*
%TO.P,R1,1*%
%TO.N,VCC*%
X139954000Y-109982000D03*
%TO.P,R1,2*%
%TO.N,Net-(D1-A)*%
X141954000Y-109982000D03*
%TD*%
D11*
%TO.P,C1,1*%
%TO.N,VCC*%
X134620000Y-90375000D03*
%TO.P,C1,2*%
%TO.N,GND*%
X134620000Y-87425000D03*
%TD*%
D18*
%TO.P,J1,1,Pin_1*%
%TO.N,/A16*%
X164094000Y-68199000D03*
D19*
%TO.P,J1,1n,Pin_39*%
%TO.N,unconnected-(J1-Pin_39-Pad1n)*%
X164114000Y-64199000D03*
D18*
%TO.P,J1,2,Pin_2*%
%TO.N,/A15*%
X162844000Y-68199000D03*
D19*
%TO.P,J1,2n,Pin_40*%
%TO.N,unconnected-(J1-Pin_40-Pad2n)*%
X162844000Y-64199000D03*
D18*
%TO.P,J1,3,Pin_3*%
%TO.N,/A12*%
X161594000Y-68199000D03*
D19*
%TO.P,J1,3n,Pin_41*%
%TO.N,unconnected-(J1-Pin_41-Pad3n)*%
X161594000Y-64199000D03*
D18*
%TO.P,J1,4,Pin_4*%
%TO.N,/A7*%
X160344000Y-68199000D03*
D19*
%TO.P,J1,4n,Pin_42*%
%TO.N,unconnected-(J1-Pin_42-Pad4n)*%
X160344000Y-64199000D03*
D18*
%TO.P,J1,5,Pin_5*%
%TO.N,/A6*%
X159094000Y-68199000D03*
D19*
%TO.P,J1,5n,Pin_43*%
%TO.N,unconnected-(J1-Pin_43-Pad5n)*%
X159094000Y-64199000D03*
D18*
%TO.P,J1,6,Pin_6*%
%TO.N,/A5*%
X157844000Y-68199000D03*
D19*
%TO.P,J1,6n,Pin_44*%
%TO.N,unconnected-(J1-Pin_44-Pad6n)*%
X157844000Y-64199000D03*
D18*
%TO.P,J1,7,Pin_7*%
%TO.N,/A4*%
X156594000Y-68199000D03*
D19*
%TO.P,J1,7n,Pin_45*%
%TO.N,unconnected-(J1-Pin_45-Pad7n)*%
X156594000Y-64199000D03*
D18*
%TO.P,J1,8,Pin_8*%
%TO.N,/A3*%
X155344000Y-68199000D03*
D19*
%TO.P,J1,8n,Pin_46*%
%TO.N,unconnected-(J1-Pin_46-Pad8n)*%
X155344000Y-64199000D03*
D18*
%TO.P,J1,9,Pin_9*%
%TO.N,/A2*%
X154094000Y-68199000D03*
D19*
%TO.P,J1,9n,Pin_47*%
%TO.N,unconnected-(J1-Pin_47-Pad9n)*%
X154094000Y-64199000D03*
D18*
%TO.P,J1,10,Pin_10*%
%TO.N,/A1*%
X152844000Y-68199000D03*
D19*
%TO.P,J1,10n,Pin_48*%
%TO.N,unconnected-(J1-Pin_48-Pad10n)*%
X152844000Y-64199000D03*
D18*
%TO.P,J1,11,Pin_11*%
%TO.N,/A0*%
X151594000Y-68199000D03*
D19*
%TO.P,J1,11n,Pin_49*%
%TO.N,unconnected-(J1-Pin_49-Pad11n)*%
X151594000Y-64199000D03*
D20*
%TO.P,J1,12,Pin_12*%
%TO.N,/D0*%
X150344000Y-69199000D03*
D21*
%TO.P,J1,12n,Pin_50*%
%TO.N,unconnected-(J1-Pin_50-Pad12n)*%
X150344000Y-65199000D03*
D20*
%TO.P,J1,13,Pin_13*%
%TO.N,/D1*%
X149094000Y-69199000D03*
D21*
%TO.P,J1,13n,Pin_51*%
%TO.N,unconnected-(J1-Pin_51-Pad13n)*%
X149094000Y-65199000D03*
D20*
%TO.P,J1,14,Pin_14*%
%TO.N,/D2*%
X147844000Y-69199000D03*
D21*
%TO.P,J1,14n,Pin_52*%
%TO.N,unconnected-(J1-Pin_52-Pad14n)*%
X147844000Y-65199000D03*
D19*
%TO.P,J1,15,GND*%
%TO.N,unconnected-(J1-GND-Pad15)*%
X146594000Y-69699000D03*
D18*
%TO.P,J1,15n,Pin_53*%
%TO.N,GND*%
X146594000Y-65699000D03*
D22*
%TO.P,J1,16,GND*%
X145344000Y-66949000D03*
%TO.P,J1,17,GND*%
X144094000Y-66949000D03*
D18*
%TO.P,J1,18,Pin_18*%
%TO.N,/A14*%
X142844000Y-68199000D03*
D19*
%TO.P,J1,18n,Pin_56*%
%TO.N,unconnected-(J1-Pin_56-Pad18n)*%
X142844000Y-64199000D03*
D21*
%TO.P,J1,19,Pin_19*%
%TO.N,VCC*%
X141594000Y-68699000D03*
D20*
%TO.P,J1,19n,Pin_57*%
%TO.N,unconnected-(J1-Pin_57-Pad19n)*%
X141594000Y-64699000D03*
D21*
%TO.P,J1,20,Pin_20*%
%TO.N,VCC*%
X140344000Y-68699000D03*
D20*
%TO.P,J1,20n,Pin_58*%
%TO.N,unconnected-(J1-Pin_58-Pad20n)*%
X140344000Y-64699000D03*
D21*
%TO.P,J1,21,Pin_21*%
%TO.N,VCC*%
X139094000Y-68699000D03*
D20*
%TO.P,J1,21n,Pin_59*%
%TO.N,unconnected-(J1-Pin_59-Pad21n)*%
X139094000Y-64699000D03*
D18*
%TO.P,J1,22,Pin_22*%
%TO.N,/WEL*%
X137844000Y-68199000D03*
D19*
%TO.P,J1,22n,Pin_60*%
%TO.N,unconnected-(J1-Pin_60-Pad22n)*%
X137844000Y-64199000D03*
D18*
%TO.P,J1,23,Pin_23*%
%TO.N,/A13*%
X136594000Y-68199000D03*
D19*
%TO.P,J1,23n,Pin_61*%
%TO.N,unconnected-(J1-Pin_61-Pad23n)*%
X136594000Y-64199000D03*
D18*
%TO.P,J1,24,Pin_24*%
%TO.N,/A8*%
X135344000Y-68199000D03*
D19*
%TO.P,J1,24n,Pin_62*%
%TO.N,unconnected-(J1-Pin_62-Pad24n)*%
X135344000Y-64199000D03*
D18*
%TO.P,J1,25,Pin_25*%
%TO.N,/A9*%
X134094000Y-68199000D03*
D19*
%TO.P,J1,25n,Pin_63*%
%TO.N,unconnected-(J1-Pin_63-Pad25n)*%
X134094000Y-64199000D03*
D18*
%TO.P,J1,26,Pin_26*%
%TO.N,/A11*%
X132844000Y-68199000D03*
D19*
%TO.P,J1,26n,Pin_64*%
%TO.N,unconnected-(J1-Pin_64-Pad26n)*%
X132844000Y-64199000D03*
D18*
%TO.P,J1,27,Pin_27*%
%TO.N,unconnected-(J1-Pin_27-Pad27)*%
X131594000Y-68199000D03*
D19*
%TO.P,J1,27n,Pin_65*%
%TO.N,unconnected-(J1-Pin_65-Pad27n)*%
X131594000Y-64199000D03*
D18*
%TO.P,J1,28,Pin_28*%
%TO.N,/ROE*%
X130344000Y-68199000D03*
D19*
%TO.P,J1,28n,Pin_66*%
%TO.N,unconnected-(J1-Pin_66-Pad28n)*%
X130344000Y-64199000D03*
D18*
%TO.P,J1,29,Pin_29*%
%TO.N,/A10*%
X129094000Y-68199000D03*
D19*
%TO.P,J1,29n,Pin_67*%
%TO.N,unconnected-(J1-Pin_67-Pad29n)*%
X129094000Y-64199000D03*
D18*
%TO.P,J1,30,Pin_30*%
%TO.N,/~{SE1}*%
X127844000Y-68199000D03*
D19*
%TO.P,J1,30n,Pin_68*%
%TO.N,unconnected-(J1-Pin_68-Pad30n)*%
X127844000Y-64199000D03*
D20*
%TO.P,J1,31,Pin_31*%
%TO.N,/D7*%
X126594000Y-69199000D03*
D21*
%TO.P,J1,31n,Pin_69*%
%TO.N,unconnected-(J1-Pin_69-Pad31n)*%
X126594000Y-65199000D03*
D20*
%TO.P,J1,32,Pin_32*%
%TO.N,/D6*%
X125344000Y-69199000D03*
D21*
%TO.P,J1,32n,Pin_70*%
%TO.N,unconnected-(J1-Pin_70-Pad32n)*%
X125344000Y-65199000D03*
D20*
%TO.P,J1,33,Pin_33*%
%TO.N,/D3*%
X124094000Y-69199000D03*
D21*
%TO.P,J1,33n,Pin_71*%
%TO.N,unconnected-(J1-Pin_71-Pad33n)*%
X124094000Y-65199000D03*
D20*
%TO.P,J1,34,Pin_34*%
%TO.N,/D4*%
X122844000Y-69199000D03*
D21*
%TO.P,J1,34n,Pin_72*%
%TO.N,unconnected-(J1-Pin_72-Pad34n)*%
X122844000Y-65199000D03*
D20*
%TO.P,J1,35,Pin_35*%
%TO.N,/D5*%
X121594000Y-69199000D03*
D21*
%TO.P,J1,35n,Pin_73*%
%TO.N,unconnected-(J1-Pin_73-Pad35n)*%
X121594000Y-65199000D03*
D18*
%TO.P,J1,36,Pin_36*%
%TO.N,/A17*%
X120344000Y-68144000D03*
D19*
%TO.P,J1,36n,Pin_74*%
%TO.N,unconnected-(J1-Pin_74-Pad36n)*%
X120344000Y-64199000D03*
D18*
%TO.P,J1,37,Pin_37*%
%TO.N,/A18*%
X119094000Y-68144000D03*
D19*
%TO.P,J1,37n,Pin_75*%
%TO.N,unconnected-(J1-Pin_75-Pad37n)*%
X119094000Y-64199000D03*
D18*
%TO.P,J1,38,Pin_38*%
%TO.N,/A19*%
X117844000Y-68144000D03*
D19*
%TO.P,J1,38n,Pin_76*%
%TO.N,unconnected-(J1-Pin_76-Pad38n)*%
X117844000Y-64199000D03*
%TD*%
D12*
%TO.P,U3,1,A18*%
%TO.N,/A18*%
X163576000Y-78994000D03*
%TO.P,U3,2,A16*%
%TO.N,/A16*%
X162306000Y-78994000D03*
%TO.P,U3,3,A14*%
%TO.N,/A14*%
X161036000Y-78994000D03*
%TO.P,U3,4,A12*%
%TO.N,/A12*%
X159766000Y-78994000D03*
%TO.P,U3,5,A7*%
%TO.N,/A7*%
X158496000Y-78994000D03*
%TO.P,U3,6,A6*%
%TO.N,/A6*%
X157226000Y-78994000D03*
%TO.P,U3,7,A5*%
%TO.N,/A5*%
X155956000Y-78994000D03*
%TO.P,U3,8,A4*%
%TO.N,/A4*%
X154686000Y-78994000D03*
%TO.P,U3,9,A3*%
%TO.N,/A3*%
X153416000Y-78994000D03*
%TO.P,U3,10,A2*%
%TO.N,/A2*%
X152146000Y-78994000D03*
%TO.P,U3,11,A1*%
%TO.N,/A1*%
X150876000Y-78994000D03*
%TO.P,U3,12,A0*%
%TO.N,/A0*%
X149606000Y-78994000D03*
%TO.P,U3,13,DQ0*%
%TO.N,/D0*%
X148336000Y-78994000D03*
%TO.P,U3,14,DQ1*%
%TO.N,/D1*%
X147066000Y-78994000D03*
%TO.P,U3,15,DQ2*%
%TO.N,/D2*%
X145796000Y-78994000D03*
%TO.P,U3,16,VSS*%
%TO.N,GND*%
X144526000Y-78994000D03*
%TO.P,U3,17,DQ3*%
%TO.N,/D3*%
X144526000Y-92094000D03*
%TO.P,U3,18,DQ4*%
%TO.N,/D4*%
X145796000Y-92094000D03*
%TO.P,U3,19,DQ5*%
%TO.N,/D5*%
X147066000Y-92094000D03*
%TO.P,U3,20,DQ6*%
%TO.N,/D6*%
X148336000Y-92094000D03*
%TO.P,U3,21,DQ7*%
%TO.N,/D7*%
X149606000Y-92094000D03*
%TO.P,U3,22,CE#*%
%TO.N,Net-(U3-CE#)*%
X150876000Y-92094000D03*
%TO.P,U3,23,A10*%
%TO.N,/A10*%
X152146000Y-92094000D03*
%TO.P,U3,24,OE#*%
%TO.N,/ROE*%
X153416000Y-92094000D03*
%TO.P,U3,25,A11*%
%TO.N,/A11*%
X154686000Y-92094000D03*
%TO.P,U3,26,A9*%
%TO.N,/A9*%
X155956000Y-92094000D03*
%TO.P,U3,27,A8*%
%TO.N,/A8*%
X157226000Y-92094000D03*
%TO.P,U3,28,A13*%
%TO.N,/A13*%
X158496000Y-92094000D03*
%TO.P,U3,29,WE#*%
%TO.N,/WEL*%
X159766000Y-92094000D03*
%TO.P,U3,30,A17*%
%TO.N,/A17*%
X161036000Y-92094000D03*
%TO.P,U3,31,A15*%
%TO.N,/A15*%
X162306000Y-92094000D03*
%TO.P,U3,32,VCC*%
%TO.N,VCC*%
X163576000Y-92094000D03*
%TD*%
D23*
%TO.N,GND*%
X123190000Y-106934000D03*
X141351000Y-98298000D03*
X133477000Y-83502000D03*
X120469000Y-77824000D03*
X129540000Y-112141000D03*
X130175000Y-106971000D03*
X144094000Y-71699000D03*
%TO.N,/D2*%
X145669000Y-80899000D03*
X127219000Y-80949000D03*
X145796000Y-97409000D03*
%TO.N,/D1*%
X147066000Y-98298000D03*
X128219000Y-80949000D03*
X147066000Y-80899000D03*
%TO.N,/A14*%
X161036000Y-80899000D03*
X161036000Y-99822000D03*
X142875000Y-73025000D03*
X120719000Y-96449000D03*
%TO.N,/D0*%
X148344000Y-80899000D03*
X129219000Y-80949000D03*
X148336000Y-97409000D03*
%TO.N,/A13*%
X158496000Y-89916000D03*
X158496000Y-106426000D03*
X136594000Y-73025000D03*
X120969000Y-101699000D03*
%TO.N,/A0*%
X149606000Y-80899000D03*
X149606000Y-98298000D03*
X122555000Y-77470000D03*
%TO.N,/A8*%
X157226000Y-89027000D03*
X135344000Y-73025000D03*
X157226000Y-99748000D03*
X157226000Y-105410000D03*
X127719003Y-96449000D03*
%TO.N,/A1*%
X150876000Y-80899000D03*
X131719000Y-77824000D03*
X150876000Y-97409000D03*
%TO.N,/A9*%
X123969000Y-101699000D03*
X155956000Y-89916000D03*
X155956000Y-106426000D03*
X134094000Y-73025000D03*
%TO.N,/A2*%
X152146000Y-98298000D03*
X152146000Y-81824000D03*
X132219000Y-96449000D03*
%TO.N,/A11*%
X132844000Y-73025000D03*
X122469000Y-101699000D03*
X154686000Y-89027000D03*
X154686000Y-106426000D03*
%TO.N,/A3*%
X153416000Y-80899000D03*
X153416000Y-97409000D03*
X131469000Y-95449000D03*
%TO.N,/A4*%
X130719000Y-96449000D03*
X154686000Y-98298000D03*
X154686000Y-81824000D03*
%TO.N,/A10*%
X152146000Y-106426000D03*
X152146000Y-89027000D03*
X122719000Y-96424000D03*
X129094000Y-73025000D03*
%TO.N,/A5*%
X155956000Y-80899000D03*
X129969000Y-95449000D03*
X155956000Y-97409000D03*
%TO.N,/A6*%
X157226000Y-98298000D03*
X157226000Y-81788000D03*
X129219000Y-96449000D03*
%TO.N,/D7*%
X126594000Y-73025000D03*
X149606000Y-106426000D03*
X121719000Y-80949000D03*
X149606000Y-89027000D03*
%TO.N,/A7*%
X128469000Y-95449000D03*
X158496000Y-80899000D03*
X158496000Y-97409000D03*
%TO.N,/D6*%
X148336000Y-89916000D03*
X122719000Y-80949000D03*
X125344000Y-73025000D03*
X148336000Y-106426000D03*
%TO.N,/A12*%
X159126000Y-105410000D03*
X159766000Y-98298000D03*
X159766000Y-80899000D03*
X121719000Y-100699000D03*
%TO.N,/D5*%
X147066000Y-106426000D03*
X123744305Y-81974305D03*
X147066000Y-89027000D03*
%TO.N,/A15*%
X120219000Y-100699000D03*
X162306000Y-89027000D03*
X162814000Y-73025000D03*
X162306000Y-106426000D03*
%TO.N,/D4*%
X145796000Y-106426000D03*
X124744305Y-80974305D03*
X145796000Y-89916000D03*
%TO.N,/A16*%
X119469000Y-101699000D03*
X162306000Y-80899000D03*
X162523000Y-99785000D03*
%TO.N,/D3*%
X144526000Y-89027000D03*
X126219000Y-80949000D03*
X144526000Y-106426000D03*
%TO.N,/WEL*%
X159766000Y-106426000D03*
X125222000Y-100711000D03*
X159766000Y-89027000D03*
X137844000Y-73025000D03*
%TO.N,/ROE*%
X130094000Y-81949000D03*
X153416000Y-89916000D03*
X153416000Y-106426000D03*
%TO.N,/A17*%
X161036000Y-89916000D03*
X119719000Y-80949000D03*
X161036000Y-106426000D03*
%TO.N,/A19*%
X118545892Y-88591108D03*
X126219000Y-96449000D03*
%TO.N,/A18*%
X163576000Y-81788000D03*
X126969006Y-95449000D03*
X163576000Y-97409000D03*
X119253000Y-87884000D03*
%TO.N,/~{SE1}*%
X130719000Y-76926000D03*
X128719000Y-76949000D03*
X133604000Y-104424000D03*
%TO.N,Net-(JP1-A)*%
X136594000Y-105881000D03*
X150876000Y-106426000D03*
%TO.N,Net-(U3-CE#)*%
X127344000Y-103699000D03*
X151511000Y-104394000D03*
X150876000Y-89916000D03*
%TD*%
D24*
%TO.N,GND*%
X128270000Y-110687000D02*
X128270000Y-111125000D01*
D25*
X144094000Y-71699000D02*
X144094000Y-75489000D01*
D24*
X130810000Y-110687000D02*
X130810000Y-111125000D01*
X120219000Y-78074000D02*
X120469000Y-77824000D01*
D25*
X144094000Y-75489000D02*
X143383000Y-76200000D01*
D26*
X141351000Y-98298000D02*
X141351000Y-100252000D01*
D24*
X134620000Y-84645000D02*
X134620000Y-87425000D01*
D26*
X130810000Y-111379000D02*
X130810000Y-110687000D01*
D24*
X133477000Y-83502000D02*
X133433702Y-83502000D01*
D25*
X141351000Y-84074000D02*
X141351000Y-78232000D01*
D26*
X123190000Y-106934000D02*
X123190000Y-105537000D01*
X144526000Y-77343000D02*
X143383000Y-76200000D01*
X144145000Y-97282000D02*
X144526000Y-96901000D01*
X144526000Y-78994000D02*
X144526000Y-77343000D01*
X129540000Y-112141000D02*
X130048000Y-112141000D01*
X141351000Y-98298000D02*
X142367000Y-97282000D01*
D24*
X120469000Y-77824000D02*
X120719000Y-78074000D01*
D26*
X129540000Y-106336000D02*
X129540000Y-105537000D01*
D24*
X130219000Y-80287298D02*
X130219000Y-79261500D01*
D25*
X144094000Y-66949000D02*
X144094000Y-71699000D01*
D24*
X120219000Y-79261500D02*
X120219000Y-78074000D01*
X120719000Y-78074000D02*
X120719000Y-79261500D01*
D26*
X130175000Y-106971000D02*
X129540000Y-106336000D01*
D24*
X133433702Y-83502000D02*
X130219000Y-80287298D01*
D26*
X142367000Y-97282000D02*
X144145000Y-97282000D01*
X128270000Y-111506000D02*
X128270000Y-110687000D01*
D25*
X141351000Y-78232000D02*
X143383000Y-76200000D01*
D24*
X133477000Y-83502000D02*
X134620000Y-84645000D01*
D26*
X128905000Y-112141000D02*
X128270000Y-111506000D01*
X129540000Y-110687000D02*
X129540000Y-112141000D01*
X144526000Y-96901000D02*
X144526000Y-95250000D01*
X130048000Y-112141000D02*
X130810000Y-111379000D01*
X129540000Y-112141000D02*
X128905000Y-112141000D01*
%TO.N,VCC*%
X161919000Y-87024000D02*
X141351000Y-87024000D01*
D25*
X138303000Y-107537000D02*
X139954000Y-109188000D01*
D26*
X163576000Y-92094000D02*
X163576000Y-88681000D01*
D25*
X139954000Y-109188000D02*
X139954000Y-109982000D01*
D26*
X163576000Y-88681000D02*
X161919000Y-87024000D01*
D24*
X125219000Y-98636500D02*
X125219000Y-96142000D01*
D25*
X138303000Y-108585000D02*
X138303000Y-107537000D01*
X136201000Y-110687000D02*
X138303000Y-108585000D01*
D26*
X160460859Y-103202000D02*
X163576000Y-106317141D01*
D25*
X132080000Y-110687000D02*
X136201000Y-110687000D01*
X134620000Y-90375000D02*
X135939000Y-90375000D01*
X138303000Y-85217000D02*
X138303000Y-88011000D01*
X140110000Y-87024000D02*
X138303000Y-85217000D01*
X140344000Y-69511500D02*
X140344000Y-73460500D01*
D24*
X125494000Y-84879500D02*
X125494000Y-80698695D01*
D26*
X163576000Y-106317141D02*
X163576000Y-108350000D01*
D24*
X125219000Y-80423695D02*
X125219000Y-79261500D01*
D25*
X140344000Y-73460500D02*
X138303000Y-75501500D01*
X138303000Y-101600000D02*
X138303000Y-107537000D01*
D24*
X130989500Y-90375000D02*
X125494000Y-84879500D01*
D25*
X141351000Y-103202000D02*
X139905000Y-103202000D01*
D24*
X125494000Y-80698695D02*
X125219000Y-80423695D01*
D25*
X138303000Y-75501500D02*
X138303000Y-85217000D01*
D24*
X134620000Y-90375000D02*
X130989500Y-90375000D01*
D25*
X135939000Y-90375000D02*
X138303000Y-88011000D01*
X141351000Y-87024000D02*
X140110000Y-87024000D01*
X139905000Y-103202000D02*
X138303000Y-101600000D01*
X138303000Y-88011000D02*
X138303000Y-101600000D01*
D24*
X125219000Y-96142000D02*
X130986000Y-90375000D01*
D26*
X141351000Y-103202000D02*
X160460859Y-103202000D01*
D24*
%TO.N,/D2*%
X145796000Y-74930000D02*
X147844000Y-72882000D01*
X127219000Y-79261500D02*
X127219000Y-80949000D01*
X145669000Y-80899000D02*
X145796000Y-80772000D01*
X145796000Y-80772000D02*
X145796000Y-78994000D01*
X145796000Y-97409000D02*
X145796000Y-95250000D01*
X145669000Y-79121000D02*
X145796000Y-78994000D01*
X147844000Y-72882000D02*
X147844000Y-69199000D01*
X145796000Y-78994000D02*
X145796000Y-74930000D01*
%TO.N,/D1*%
X147066000Y-78994000D02*
X147066000Y-80899000D01*
X147066000Y-98189611D02*
X147066000Y-95250000D01*
X146431000Y-76835000D02*
X146431000Y-75501500D01*
X128219000Y-79261500D02*
X128219000Y-80949000D01*
X149094000Y-72838500D02*
X149094000Y-69199000D01*
X146431000Y-75501500D02*
X149094000Y-72838500D01*
X147066000Y-77470000D02*
X146431000Y-76835000D01*
X147007153Y-98248458D02*
X147066000Y-98189611D01*
X147066000Y-78994000D02*
X147066000Y-77470000D01*
%TO.N,/A14*%
X142844000Y-68199000D02*
X142844000Y-72994000D01*
X161036000Y-99822000D02*
X161036000Y-95250000D01*
X161036000Y-78994000D02*
X161036000Y-80899000D01*
X142844000Y-72994000D02*
X142875000Y-73025000D01*
X120719000Y-98636500D02*
X120719000Y-96449000D01*
%TO.N,/D0*%
X148336000Y-77724000D02*
X149225000Y-76835000D01*
X149225000Y-74144000D02*
X150344000Y-73025000D01*
X148344000Y-80899000D02*
X148336000Y-80891000D01*
X129219000Y-79261500D02*
X129219000Y-80949000D01*
X148336000Y-80891000D02*
X148336000Y-78994000D01*
X150344000Y-73025000D02*
X150344000Y-69199000D01*
X149225000Y-76835000D02*
X149225000Y-74144000D01*
X148336000Y-78994000D02*
X148336000Y-77724000D01*
X148336000Y-95250000D02*
X148336000Y-97409000D01*
%TO.N,/A13*%
X158496000Y-89916000D02*
X158496000Y-92094000D01*
X158496000Y-108350000D02*
X158496000Y-106426000D01*
X136594000Y-68199000D02*
X136594000Y-73025000D01*
X121219000Y-98636500D02*
X121219000Y-100173695D01*
X120969000Y-100423695D02*
X120969000Y-101699000D01*
X158496000Y-92094000D02*
X158496000Y-89789000D01*
X121219000Y-100173695D02*
X120969000Y-100423695D01*
%TO.N,/A0*%
X121219000Y-78406236D02*
X121219000Y-79261500D01*
X149606000Y-78994000D02*
X149606000Y-77470000D01*
X149606000Y-77470000D02*
X149987000Y-77089000D01*
X149606000Y-80899000D02*
X149606000Y-78994000D01*
X122155236Y-77470000D02*
X121219000Y-78406236D01*
X122555000Y-77470000D02*
X122155236Y-77470000D01*
X149606000Y-98298000D02*
X149606000Y-95250000D01*
X149987000Y-77089000D02*
X149987000Y-74632000D01*
X151594000Y-73025000D02*
X151594000Y-68199000D01*
X149987000Y-74632000D02*
X151594000Y-73025000D01*
%TO.N,/A8*%
X135344000Y-73025000D02*
X135344000Y-68199000D01*
X128219000Y-97110701D02*
X127719003Y-96610704D01*
X127719003Y-96610704D02*
X127719003Y-96449000D01*
X128219000Y-98636500D02*
X128219000Y-97110701D01*
X157226000Y-105410000D02*
X157226000Y-108350000D01*
X157226000Y-89027000D02*
X157226000Y-92094000D01*
%TO.N,/A1*%
X150876000Y-97409000D02*
X150876000Y-95250000D01*
X131719000Y-77824000D02*
X131219000Y-78324000D01*
X152844000Y-72962000D02*
X152844000Y-68199000D01*
X150876000Y-78994000D02*
X150876000Y-74930000D01*
X131219000Y-78324000D02*
X131219000Y-79261500D01*
X150876000Y-74930000D02*
X152844000Y-72962000D01*
X150876000Y-80899000D02*
X150876000Y-78994000D01*
%TO.N,/A9*%
X123219000Y-98636500D02*
X123219000Y-100136500D01*
X134094000Y-68199000D02*
X134094000Y-73025000D01*
X123969000Y-100886500D02*
X123969000Y-101699000D01*
X155956000Y-108350000D02*
X155956000Y-106426000D01*
X155956000Y-89916000D02*
X155956000Y-92094000D01*
X123219000Y-100136500D02*
X123969000Y-100886500D01*
%TO.N,/A2*%
X131219000Y-97626514D02*
X132219000Y-96626514D01*
X152146000Y-74930000D02*
X154094000Y-72982000D01*
X152146000Y-78994000D02*
X152146000Y-81824000D01*
X132219000Y-96626514D02*
X132219000Y-96449000D01*
X154094000Y-72982000D02*
X154094000Y-68199000D01*
X152146000Y-78994000D02*
X152146000Y-74930000D01*
X152146000Y-98298000D02*
X152146000Y-95250000D01*
X131219000Y-98636500D02*
X131219000Y-97626514D01*
%TO.N,/A11*%
X154686000Y-89027000D02*
X154686000Y-92094000D01*
X154686000Y-108350000D02*
X154686000Y-106426000D01*
X122219000Y-98636500D02*
X122219000Y-100173695D01*
X122219000Y-100173695D02*
X122469000Y-100423695D01*
X122469000Y-100423695D02*
X122469000Y-101699000D01*
X132844000Y-73025000D02*
X132844000Y-68199000D01*
%TO.N,/A3*%
X131469000Y-96740118D02*
X131469000Y-95449000D01*
X153416000Y-78994000D02*
X153416000Y-80899000D01*
X153416000Y-74930000D02*
X155344000Y-73002000D01*
X153416000Y-78994000D02*
X153416000Y-74930000D01*
X155344000Y-73002000D02*
X155344000Y-68199000D01*
X130719000Y-98636500D02*
X130719000Y-97490118D01*
X153416000Y-97409000D02*
X153416000Y-95250000D01*
X130719000Y-97490118D02*
X131469000Y-96740118D01*
%TO.N,/A4*%
X130219000Y-98636500D02*
X130219000Y-97110701D01*
X154686000Y-78994000D02*
X154686000Y-81824000D01*
X154686000Y-98298000D02*
X154686000Y-95250000D01*
X154686000Y-78994000D02*
X154686000Y-74933000D01*
X156594000Y-73025000D02*
X156594000Y-68199000D01*
X130719000Y-96610701D02*
X130719000Y-96449000D01*
X130219000Y-97110701D02*
X130719000Y-96610701D01*
X154686000Y-74933000D02*
X156594000Y-73025000D01*
%TO.N,/A10*%
X122719000Y-96424000D02*
X122719000Y-98636500D01*
X152146000Y-108350000D02*
X152146000Y-106426000D01*
X129094000Y-68199000D02*
X129094000Y-73025000D01*
X152146000Y-89027000D02*
X152146000Y-92094000D01*
%TO.N,/A5*%
X155956000Y-97409000D02*
X155956000Y-95250000D01*
X129969000Y-96724305D02*
X129969000Y-95449000D01*
X155956000Y-74930000D02*
X157861000Y-73025000D01*
X129719000Y-98636500D02*
X129719000Y-96974305D01*
X155956000Y-78994000D02*
X155956000Y-74930000D01*
X129719000Y-96974305D02*
X129969000Y-96724305D01*
X157861000Y-73025000D02*
X157861000Y-68043000D01*
X155956000Y-78994000D02*
X155956000Y-80899000D01*
X157861000Y-68043000D02*
X157896000Y-68008000D01*
%TO.N,/A6*%
X157226000Y-98298000D02*
X157226000Y-95250000D01*
X157226000Y-78994000D02*
X157226000Y-74931396D01*
X157226000Y-74931396D02*
X159094000Y-73063396D01*
X159094000Y-73063396D02*
X159094000Y-68199000D01*
X157226000Y-78994000D02*
X157226000Y-81788000D01*
X129219000Y-98636500D02*
X129219000Y-96449000D01*
%TO.N,/D7*%
X126594000Y-69199000D02*
X126594000Y-73025000D01*
X149606000Y-108350000D02*
X149606000Y-106426000D01*
X121719000Y-79261500D02*
X121719000Y-80949000D01*
X149606000Y-89027000D02*
X149606000Y-92094000D01*
%TO.N,/A7*%
X128719000Y-98636500D02*
X128719000Y-96974305D01*
X128469000Y-96724305D02*
X128469000Y-95449000D01*
X158496000Y-74930000D02*
X160344000Y-73082000D01*
X158496000Y-97409000D02*
X158496000Y-95250000D01*
X158496000Y-78994000D02*
X158496000Y-74930000D01*
X158496000Y-78994000D02*
X158496000Y-80899000D01*
X160344000Y-73082000D02*
X160344000Y-68199000D01*
X128719000Y-96974305D02*
X128469000Y-96724305D01*
%TO.N,/D6*%
X148336000Y-89916000D02*
X148336000Y-92094000D01*
X125344000Y-69199000D02*
X125344000Y-73025000D01*
X122719000Y-79261500D02*
X122719000Y-80949000D01*
X148336000Y-108350000D02*
X148336000Y-106426000D01*
%TO.N,/A12*%
X161594000Y-73102000D02*
X159766000Y-74930000D01*
X159766000Y-98298000D02*
X159766000Y-95250000D01*
X159766000Y-74930000D02*
X159766000Y-78994000D01*
X159766000Y-78994000D02*
X159766000Y-80899000D01*
X161594000Y-68199000D02*
X161594000Y-73102000D01*
X121719000Y-98636500D02*
X121719000Y-100699000D01*
%TO.N,/D5*%
X123719000Y-81949000D02*
X123744305Y-81974305D01*
X123719000Y-79261500D02*
X123719000Y-81949000D01*
X147066000Y-108350000D02*
X147066000Y-106426000D01*
X123719000Y-75205000D02*
X123719000Y-79261500D01*
X121594000Y-73080000D02*
X123719000Y-75205000D01*
X147066000Y-89027000D02*
X147066000Y-92094000D01*
X121594000Y-69199000D02*
X121594000Y-73080000D01*
%TO.N,/A15*%
X162306000Y-108350000D02*
X162306000Y-106426000D01*
X162814000Y-73025000D02*
X162844000Y-72995000D01*
X120219000Y-98636500D02*
X120219000Y-100699000D01*
X162306000Y-89027000D02*
X162306000Y-92094000D01*
X162844000Y-72995000D02*
X162844000Y-68199000D01*
X162814000Y-68090000D02*
X162896000Y-68008000D01*
%TO.N,/D4*%
X122844000Y-73060000D02*
X124719000Y-74935000D01*
X122844000Y-69199000D02*
X122844000Y-73060000D01*
X124719000Y-80949000D02*
X124744305Y-80974305D01*
X145796000Y-92094000D02*
X145796000Y-89916000D01*
X145796000Y-108350000D02*
X145796000Y-106426000D01*
X124719000Y-79261500D02*
X124719000Y-80949000D01*
X124719000Y-74935000D02*
X124719000Y-79261500D01*
%TO.N,/A16*%
X162306000Y-98044000D02*
X162306000Y-95250000D01*
X164094000Y-68199000D02*
X164094000Y-73015000D01*
X119469000Y-100423695D02*
X119469000Y-101699000D01*
X162687000Y-99621000D02*
X162687000Y-98425000D01*
X162687000Y-74422000D02*
X162687000Y-77089000D01*
X162306000Y-78994000D02*
X162306000Y-80899000D01*
X162687000Y-77089000D02*
X162306000Y-77470000D01*
X119719000Y-100173695D02*
X119469000Y-100423695D01*
X119719000Y-98636500D02*
X119719000Y-100173695D01*
X162523000Y-99785000D02*
X162687000Y-99621000D01*
X162687000Y-98425000D02*
X162306000Y-98044000D01*
X162306000Y-77470000D02*
X162306000Y-78994000D01*
X164094000Y-73015000D02*
X162687000Y-74422000D01*
%TO.N,/D3*%
X124094000Y-73040000D02*
X126219000Y-75165000D01*
X126219000Y-80949000D02*
X126219000Y-79261500D01*
X144526000Y-108350000D02*
X144526000Y-106426000D01*
X124094000Y-69199000D02*
X124094000Y-73040000D01*
X126219000Y-75165000D02*
X126219000Y-79261500D01*
%TO.N,/WEL*%
X125222000Y-100581500D02*
X124719000Y-100078500D01*
X159766000Y-108350000D02*
X159766000Y-106426000D01*
X125222000Y-100711000D02*
X125222000Y-100581500D01*
X124719000Y-100078500D02*
X124719000Y-98636500D01*
X137844000Y-68199000D02*
X137844000Y-73025000D01*
X159766000Y-89027000D02*
X159766000Y-92094000D01*
%TO.N,/ROE*%
X130094000Y-81949000D02*
X130094000Y-80798695D01*
X129719000Y-79261500D02*
X129719000Y-75132000D01*
X130344000Y-74507000D02*
X130344000Y-68199000D01*
X153416000Y-89916000D02*
X153416000Y-92094000D01*
X130094000Y-80798695D02*
X129719000Y-80423695D01*
X129719000Y-75132000D02*
X130344000Y-74507000D01*
X129719000Y-80423695D02*
X129719000Y-79261500D01*
X153416000Y-108350000D02*
X153416000Y-106426000D01*
%TO.N,Net-(D1-K)*%
X122174000Y-104267000D02*
X122174000Y-111760000D01*
X123571000Y-103632000D02*
X122809000Y-103632000D01*
X126719000Y-98636500D02*
X126719000Y-100484000D01*
X122174000Y-111760000D02*
X123317000Y-112903000D01*
X123317000Y-112903000D02*
X139570000Y-112903000D01*
X126719000Y-100484000D02*
X123571000Y-103632000D01*
X122809000Y-103632000D02*
X122174000Y-104267000D01*
%TO.N,Net-(D1-A)*%
X142370000Y-111509000D02*
X142370000Y-112903000D01*
X141954000Y-109982000D02*
X141954000Y-111093000D01*
X141954000Y-111093000D02*
X142370000Y-111509000D01*
%TO.N,/A17*%
X119719000Y-79261500D02*
X119719000Y-80949000D01*
X120344000Y-73077000D02*
X120344000Y-68144000D01*
X119507000Y-77089000D02*
X119507000Y-73914000D01*
X161036000Y-89916000D02*
X161036000Y-92094000D01*
X119507000Y-73914000D02*
X120344000Y-73077000D01*
X120396000Y-68080000D02*
X120396000Y-70205000D01*
X119719000Y-77301000D02*
X119507000Y-77089000D01*
X161036000Y-108350000D02*
X161036000Y-106426000D01*
X119719000Y-79261500D02*
X119719000Y-77301000D01*
%TO.N,/A19*%
X127219000Y-98636500D02*
X127219000Y-97781236D01*
X127219000Y-100422000D02*
X130810000Y-104013000D01*
X117844000Y-87889216D02*
X118545892Y-88591108D01*
X130810000Y-104013000D02*
X130810000Y-105537000D01*
X117844000Y-68144000D02*
X117844000Y-87889216D01*
X126219000Y-96781236D02*
X126219000Y-96449000D01*
X127219000Y-98636500D02*
X127219000Y-100422000D01*
X127219000Y-97781236D02*
X126219000Y-96781236D01*
%TO.N,/A18*%
X118594000Y-87225000D02*
X118594000Y-73557000D01*
X163576000Y-78994000D02*
X163576000Y-81661000D01*
X119253000Y-87884000D02*
X118594000Y-87225000D01*
X163576000Y-97409000D02*
X163576000Y-95250000D01*
X118594000Y-73557000D02*
X119094000Y-73057000D01*
X127719000Y-97474302D02*
X126969006Y-96724308D01*
X127719000Y-98636500D02*
X127719000Y-97474302D01*
X126969006Y-96724308D02*
X126969006Y-95449000D01*
X119094000Y-73057000D02*
X119094000Y-68144000D01*
%TO.N,/~{SE1}*%
X128719000Y-76949000D02*
X127844000Y-76074000D01*
X127844000Y-76074000D02*
X127844000Y-68199000D01*
X133604000Y-104424000D02*
X132491000Y-105537000D01*
X130719000Y-76926000D02*
X130719000Y-79261500D01*
X132080000Y-105537000D02*
X132080000Y-106680000D01*
X132685000Y-107285000D02*
X135509000Y-107285000D01*
X132080000Y-106680000D02*
X132685000Y-107285000D01*
X132491000Y-105537000D02*
X132080000Y-105537000D01*
%TO.N,Net-(JP1-A)*%
X136594000Y-105881000D02*
X136594000Y-106450000D01*
X129921000Y-108585000D02*
X128270000Y-106934000D01*
X136594000Y-106450000D02*
X136584000Y-106460000D01*
X136109000Y-108585000D02*
X129921000Y-108585000D01*
X136584000Y-106460000D02*
X136584000Y-108110000D01*
X128270000Y-106934000D02*
X128270000Y-105537000D01*
X136584000Y-108110000D02*
X136109000Y-108585000D01*
X150876000Y-108350000D02*
X150876000Y-106426000D01*
%TO.N,Net-(U3-CE#)*%
X127000000Y-104043000D02*
X127000000Y-105537000D01*
X127344000Y-103699000D02*
X127000000Y-104043000D01*
X150876000Y-92094000D02*
X150876000Y-89916000D01*
%TD*%
%TA.AperFunction,Conductor*%
%TO.N,GND*%
G36*
X144536507Y-95279966D02*
G01*
X144537069Y-95281321D01*
X144825151Y-96122522D01*
X144825710Y-96127605D01*
X144777156Y-96564592D01*
X144772837Y-96572436D01*
X144765528Y-96575000D01*
X144286472Y-96575000D01*
X144278199Y-96571573D01*
X144274844Y-96564592D01*
X144226289Y-96127605D01*
X144226847Y-96122524D01*
X144514931Y-95281320D01*
X144520854Y-95274605D01*
X144529791Y-95274043D01*
X144536507Y-95279966D01*
G37*
%TD.AperFunction*%
%TD*%
M02*
